#N canvas 2 52 1362 692 12;
#N canvas 686 35 677 708 adsr 0;
#X msg 292 72 legato \$1;
#X msg 222 72 rel \$1;
#X msg 152 72 sus \$1;
#X obj 152 42 * 0.01;
#X msg 82 72 dec \$1;
#X msg 12 72 att \$1;
#X obj 292 12 r \$0-legato;
#X obj 222 12 r \$0-rel;
#X obj 152 12 r \$0-sus;
#X obj 82 12 r \$0-dec;
#X obj 12 12 r \$0-att;
#X obj 152 132 list prepend adsr;
#X obj 152 162 s \$0-params;
#X msg 383 72 anticlick \$1;
#X obj 383 12 r \$0-anticlick;
#X text 30 201 se reciben los parámetros de envolvente \, legato y
anticlick \, y se envían a todas las voces instanciadas por [clone]
;
#X connect 0 0 11 0;
#X connect 1 0 11 0;
#X connect 2 0 11 0;
#X connect 3 0 2 0;
#X connect 4 0 11 0;
#X connect 5 0 11 0;
#X connect 6 0 0 0;
#X connect 7 0 1 0;
#X connect 8 0 3 0;
#X connect 9 0 4 0;
#X connect 10 0 5 0;
#X connect 11 0 12 0;
#X connect 13 0 11 0;
#X connect 14 0 13 0;
#X restore 12 460 pd adsr;
#N canvas 913 52 451 692 window 0;
#X obj 13 28 loadbang;
#X obj 317 358 soundfiler;
#X obj 398 268 f \$0;
#X obj 398 238 loadbang;
#X obj 317 298 list prepend;
#X obj 317 238 openpanel;
#X obj 317 208 r \$0-loadWindow;
#X msg 201 298 symbol \$1;
#X obj 181 261 symbol;
#X obj 181 328 s \$0-window-path;
#X obj 100 201 r \$0-window-path-r;
#X obj 100 231 route symbol;
#X obj 23 88 s \$0-window-duration;
#X obj 13 118 list prepend pass window duration;
#X obj 13 143 s \$0-params;
#X obj 549 55 r \$0-window-sel;
#X msg 549 250 straight;
#X msg 566 275 hann;
#X msg 317 328 read \$2 \$1-custom;
#X msg 13 58 512;
#X obj 549 425 list prepend pass window shape;
#X obj 549 450 s \$0-params;
#X obj 159 578 tabread4~;
#X msg 441 439 set \$1-\$2;
#X obj 441 414 list prepend;
#X obj 51 418 samplerate~;
#X obj 51 508 phasor~, f 19;
#X obj 11 348 r \$0-window-duration;
#X obj 51 448 /;
#X obj 549 80 t b f;
#X obj 149 418 t b b;
#X msg 181 448 0;
#X obj 51 538 *~ 128, f 10;
#X obj 773 465 s \$0-window-sel-r;
#X obj 773 415 list prepend label;
#X obj 773 440 list trim;
#X obj 51 478 *;
#X obj 92 448 / 128;
#N canvas 0 50 450 250 (subpatch) 0;
#X array \$0-hann 515 float 1;
#A 0 3.76105e-05 0 3.76701e-05 0.000150651 0.000338882 0.000602394
0.000941098 0.00135493 0.0018439 0.00240788 0.00304678 0.00376052 0.004549
0.0054121 0.00634968 0.00736159 0.00844771 0.00960785 0.0108418 0.0121495
0.0135306 0.014985 0.0165124 0.0181127 0.0197855 0.0215306 0.0233478
0.0252367 0.0271972 0.0292289 0.0313314 0.0335046 0.035748 0.0380613
0.0404442 0.0428962 0.0454172 0.0480066 0.050664 0.0533891 0.0561815
0.0590407 0.0619664 0.0649579 0.068015 0.0711372 0.074324 0.0775748
0.0808893 0.0842669 0.0877071 0.0912094 0.0947732 0.0983981 0.102083
0.105829 0.109633 0.113497 0.117418 0.121398 0.125434 0.129527 0.133675
0.137879 0.142137 0.146449 0.150814 0.155232 0.159702 0.164223 0.168795
0.173416 0.178087 0.182806 0.187573 0.192387 0.197247 0.202153 0.207104
0.212099 0.217137 0.222218 0.22734 0.232504 0.237708 0.242952 0.248234
0.253554 0.258911 0.264305 0.269734 0.275198 0.280695 0.286226 0.291789
0.297383 0.303007 0.308662 0.314345 0.320056 0.325794 0.331559 0.337348
0.343163 0.349001 0.354861 0.360744 0.366647 0.372571 0.378514 0.384475
0.390453 0.396448 0.402459 0.408484 0.414523 0.420575 0.426639 0.432714
0.438799 0.444893 0.450996 0.457106 0.463222 0.469344 0.47547 0.481601
0.487734 0.493868 0.500004 0.50614 0.512275 0.518408 0.524538 0.530665
0.536787 0.542903 0.549013 0.555116 0.56121 0.567295 0.57337 0.579434
0.585485 0.591524 0.59755 0.60356 0.609555 0.615534 0.621495 0.627437
0.633361 0.639264 0.645147 0.651007 0.656845 0.66266 0.668449 0.674214
0.679952 0.685663 0.691346 0.697001 0.702625 0.708219 0.713782 0.719313
0.72481 0.730274 0.735703 0.741096 0.746453 0.751774 0.757056 0.762299
0.767503 0.772667 0.777789 0.78287 0.787908 0.792903 0.797854 0.80276
0.80762 0.812434 0.817201 0.82192 0.82659 0.831212 0.835783 0.840304
0.844774 0.849192 0.853557 0.857869 0.862127 0.866331 0.870479 0.874572
0.878608 0.882587 0.886509 0.890372 0.894177 0.897922 0.901607 0.905232
0.908796 0.912298 0.915738 0.919115 0.92243 0.925681 0.928867 0.931989
0.935046 0.938038 0.940963 0.943823 0.946615 0.94934 0.951997 0.954586
0.957107 0.959559 0.961942 0.964255 0.966499 0.968672 0.970774 0.972806
0.974766 0.976655 0.978472 0.980217 0.98189 0.98349 0.985017 0.986471
0.987852 0.98916 0.990394 0.991554 0.99264 0.993652 0.994589 0.995452
0.996241 0.996954 0.997593 0.998157 0.998646 0.999059 0.999398 0.999661
0.99985 0.999962 1 0.999962 0.999849 0.999661 0.999398 0.999059 0.998645
0.998156 0.997592 0.996953 0.99624 0.995451 0.994588 0.993651 0.992639
0.991553 0.990393 0.989159 0.987851 0.98647 0.985016 0.983488 0.981888
0.980215 0.97847 0.976653 0.974764 0.972804 0.970772 0.96867 0.966496
0.964253 0.96194 0.959557 0.957105 0.954584 0.951995 0.949337 0.946612
0.94382 0.940961 0.938035 0.935044 0.931987 0.928864 0.925678 0.922427
0.919113 0.915735 0.912295 0.908793 0.905229 0.901604 0.897919 0.894174
0.890369 0.886506 0.882584 0.878605 0.874569 0.870476 0.866328 0.862124
0.857866 0.853554 0.849189 0.844771 0.840301 0.83578 0.831208 0.826587
0.821916 0.817197 0.81243 0.807616 0.802756 0.79785 0.7929 0.787905
0.782867 0.777786 0.772663 0.7675 0.762296 0.757052 0.75177 0.74645
0.741093 0.735699 0.73027 0.724806 0.719309 0.713778 0.708215 0.702621
0.696997 0.691342 0.685659 0.679948 0.67421 0.668445 0.662656 0.656841
0.651003 0.645143 0.63926 0.633357 0.627433 0.62149 0.615529 0.609551
0.603556 0.597546 0.59152 0.585481 0.579429 0.573365 0.567291 0.561206
0.555111 0.549009 0.542899 0.536782 0.530661 0.524534 0.518404 0.512271
0.506136 0.5 0.493864 0.487729 0.481596 0.475466 0.46934 0.463218 0.457101
0.450991 0.444889 0.438795 0.432709 0.426635 0.420571 0.414519 0.40848
0.402455 0.396444 0.390449 0.384471 0.37851 0.372567 0.366643 0.36074
0.354857 0.348997 0.343159 0.337344 0.331555 0.32579 0.320052 0.314341
0.308658 0.303003 0.297379 0.291785 0.286222 0.280691 0.275194 0.26973
0.264301 0.258908 0.25355 0.24823 0.242948 0.237705 0.232501 0.227337
0.222214 0.217133 0.212095 0.2071 0.20215 0.197244 0.192383 0.18757
0.182803 0.178084 0.173413 0.168791 0.16422 0.159699 0.155229 0.150811
0.146446 0.142134 0.137876 0.133672 0.129524 0.125431 0.121395 0.117416
0.113494 0.109631 0.105826 0.102081 0.0983955 0.0947706 0.0912068 0.0877046
0.0842644 0.0808869 0.0775725 0.0743217 0.071135 0.0680128 0.0649558
0.0619642 0.0590387 0.0561795 0.0533872 0.0506621 0.0480047 0.0454153
0.0428945 0.0404424 0.0380596 0.0357463 0.033503 0.0313299 0.0292274
0.0271958 0.0252354 0.0233465 0.0215293 0.0197842 0.0181115 0.0165113
0.0149839 0.0135296 0.0121485 0.0108409 0.00960699 0.0084469 0.00736085
0.00634897 0.00541145 0.0045484 0.00375998 0.0030463 0.00240743 0.00184351
0.0013546 0.00094083 0.000602156 0.000338733 0.000150532 3.76105e-05
0 3.76701e-05;
#X coords 0 1 514 0 60 30 1 0 0;
#X restore 728 184 graph;
#N canvas 0 50 450 250 (subpatch) 0;
#X array \$0-down 515 float 1;
#A 0 0.00195312 1 0.998047 0.996094 0.994141 0.992188 0.990234 0.988281
0.986328 0.984375 0.982422 0.980469 0.978516 0.976562 0.974609 0.972656
0.970703 0.96875 0.966797 0.964844 0.962891 0.960938 0.958984 0.957031
0.955078 0.953125 0.951172 0.949219 0.947266 0.945312 0.943359 0.941406
0.939453 0.9375 0.935547 0.933594 0.931641 0.929688 0.927734 0.925781
0.923828 0.921875 0.919922 0.917969 0.916016 0.914062 0.912109 0.910156
0.908203 0.90625 0.904297 0.902344 0.900391 0.898438 0.896484 0.894531
0.892578 0.890625 0.888672 0.886719 0.884766 0.882812 0.880859 0.878906
0.876953 0.875 0.873047 0.871094 0.869141 0.867188 0.865234 0.863281
0.861328 0.859375 0.857422 0.855469 0.853516 0.851562 0.849609 0.847656
0.845703 0.84375 0.841797 0.839844 0.837891 0.835938 0.833984 0.832031
0.830078 0.828125 0.826172 0.824219 0.822266 0.820312 0.818359 0.816406
0.814453 0.8125 0.810547 0.808594 0.806641 0.804688 0.802734 0.800781
0.798828 0.796875 0.794922 0.792969 0.791016 0.789062 0.787109 0.785156
0.783203 0.78125 0.779297 0.777344 0.775391 0.773438 0.771484 0.769531
0.767578 0.765625 0.763672 0.761719 0.759766 0.757812 0.755859 0.753906
0.751953 0.75 0.748047 0.746094 0.744141 0.742188 0.740234 0.738281
0.736328 0.734375 0.732422 0.730469 0.728516 0.726562 0.724609 0.722656
0.720703 0.71875 0.716797 0.714844 0.712891 0.710938 0.708984 0.707031
0.705078 0.703125 0.701172 0.699219 0.697266 0.695312 0.693359 0.691406
0.689453 0.6875 0.685547 0.683594 0.681641 0.679688 0.677734 0.675781
0.673828 0.671875 0.669922 0.667969 0.666016 0.664062 0.662109 0.660156
0.658203 0.65625 0.654297 0.652344 0.650391 0.648438 0.646484 0.644531
0.642578 0.640625 0.638672 0.636719 0.634766 0.632812 0.630859 0.628906
0.626953 0.625 0.623047 0.621094 0.619141 0.617188 0.615234 0.613281
0.611328 0.609375 0.607422 0.605469 0.603516 0.601562 0.599609 0.597656
0.595703 0.59375 0.591797 0.589844 0.587891 0.585938 0.583984 0.582031
0.580078 0.578125 0.576172 0.574219 0.572266 0.570312 0.568359 0.566406
0.564453 0.5625 0.560547 0.558594 0.556641 0.554688 0.552734 0.550781
0.548828 0.546875 0.544922 0.542969 0.541016 0.539062 0.537109 0.535156
0.533203 0.53125 0.529297 0.527344 0.525391 0.523438 0.521484 0.519531
0.517578 0.515625 0.513672 0.511719 0.509766 0.507812 0.505859 0.503906
0.501953 0.5 0.498047 0.496094 0.494141 0.492188 0.490234 0.488281
0.486328 0.484375 0.482422 0.480469 0.478516 0.476562 0.474609 0.472656
0.470703 0.46875 0.466797 0.464844 0.462891 0.460938 0.458984 0.457031
0.455078 0.453125 0.451172 0.449219 0.447266 0.445312 0.443359 0.441406
0.439453 0.4375 0.435547 0.433594 0.431641 0.429688 0.427734 0.425781
0.423828 0.421875 0.419922 0.417969 0.416016 0.414062 0.412109 0.410156
0.408203 0.40625 0.404297 0.402344 0.400391 0.398438 0.396484 0.394531
0.392578 0.390625 0.388672 0.386719 0.384766 0.382812 0.380859 0.378906
0.376953 0.375 0.373047 0.371094 0.369141 0.367188 0.365234 0.363281
0.361328 0.359375 0.357422 0.355469 0.353516 0.351562 0.349609 0.347656
0.345703 0.34375 0.341797 0.339844 0.337891 0.335938 0.333984 0.332031
0.330078 0.328125 0.326172 0.324219 0.322266 0.320312 0.318359 0.316406
0.314453 0.3125 0.310547 0.308594 0.306641 0.304688 0.302734 0.300781
0.298828 0.296875 0.294922 0.292969 0.291016 0.289062 0.287109 0.285156
0.283203 0.28125 0.279297 0.277344 0.275391 0.273438 0.271484 0.269531
0.267578 0.265625 0.263672 0.261719 0.259766 0.257812 0.255859 0.253906
0.251953 0.25 0.248047 0.246094 0.244141 0.242188 0.240234 0.238281
0.236328 0.234375 0.232422 0.230469 0.228516 0.226562 0.224609 0.222656
0.220703 0.21875 0.216797 0.214844 0.212891 0.210938 0.208984 0.207031
0.205078 0.203125 0.201172 0.199219 0.197266 0.195312 0.193359 0.191406
0.189453 0.1875 0.185547 0.183594 0.181641 0.179688 0.177734 0.175781
0.173828 0.171875 0.169922 0.167969 0.166016 0.164062 0.162109 0.160156
0.158203 0.15625 0.154297 0.152344 0.150391 0.148438 0.146484 0.144531
0.142578 0.140625 0.138672 0.136719 0.134766 0.132812 0.130859 0.128906
0.126953 0.125 0.123047 0.121094 0.119141 0.117188 0.115234 0.113281
0.111328 0.109375 0.107422 0.105469 0.103516 0.101562 0.0996094 0.0976562
0.0957031 0.09375 0.0917969 0.0898438 0.0878906 0.0859375 0.0839844
0.0820312 0.0800781 0.078125 0.0761719 0.0742188 0.0722656 0.0703125
0.0683594 0.0664062 0.0644531 0.0625 0.0605469 0.0585938 0.0566406
0.0546875 0.0527344 0.0507812 0.0488281 0.046875 0.0449219 0.0429688
0.0410156 0.0390625 0.0371094 0.0351562 0.0332031 0.03125 0.0292969
0.0273438 0.0253906 0.0234375 0.0214844 0.0195312 0.0175781 0.015625
0.0136719 0.0117188 0.00976562 0.0078125 0.00585938 0.00390625 0.00195312
1 0.998047;
#X coords 0 1 514 0 60 30 1 0 0;
#X restore 818 159 graph;
#N canvas 0 50 450 250 (subpatch) 0;
#X array \$0-up 515 float 1;
#A 0 0.998047 0 0.00195312 0.00390625 0.00585938 0.0078125 0.00976562
0.0117188 0.0136719 0.015625 0.0175781 0.0195312 0.0214844 0.0234375
0.0253906 0.0273438 0.0292969 0.03125 0.0332031 0.0351562 0.0371094
0.0390625 0.0410156 0.0429688 0.0449219 0.046875 0.0488281 0.0507812
0.0527344 0.0546875 0.0566406 0.0585938 0.0605469 0.0625 0.0644531
0.0664062 0.0683594 0.0703125 0.0722656 0.0742188 0.0761719 0.078125
0.0800781 0.0820312 0.0839844 0.0859375 0.0878906 0.0898438 0.0917969
0.09375 0.0957031 0.0976562 0.0996094 0.101562 0.103516 0.105469 0.107422
0.109375 0.111328 0.113281 0.115234 0.117188 0.119141 0.121094 0.123047
0.125 0.126953 0.128906 0.130859 0.132812 0.134766 0.136719 0.138672
0.140625 0.142578 0.144531 0.146484 0.148438 0.150391 0.152344 0.154297
0.15625 0.158203 0.160156 0.162109 0.164062 0.166016 0.167969 0.169922
0.171875 0.173828 0.175781 0.177734 0.179688 0.181641 0.183594 0.185547
0.1875 0.189453 0.191406 0.193359 0.195312 0.197266 0.199219 0.201172
0.203125 0.205078 0.207031 0.208984 0.210938 0.212891 0.214844 0.216797
0.21875 0.220703 0.222656 0.224609 0.226562 0.228516 0.230469 0.232422
0.234375 0.236328 0.238281 0.240234 0.242188 0.244141 0.246094 0.248047
0.25 0.251953 0.253906 0.255859 0.257812 0.259766 0.261719 0.263672
0.265625 0.267578 0.269531 0.271484 0.273438 0.275391 0.277344 0.279297
0.28125 0.283203 0.285156 0.287109 0.289062 0.291016 0.292969 0.294922
0.296875 0.298828 0.300781 0.302734 0.304688 0.306641 0.308594 0.310547
0.3125 0.314453 0.316406 0.318359 0.320312 0.322266 0.324219 0.326172
0.328125 0.330078 0.332031 0.333984 0.335938 0.337891 0.339844 0.341797
0.34375 0.345703 0.347656 0.349609 0.351562 0.353516 0.355469 0.357422
0.359375 0.361328 0.363281 0.365234 0.367188 0.369141 0.371094 0.373047
0.375 0.376953 0.378906 0.380859 0.382812 0.384766 0.386719 0.388672
0.390625 0.392578 0.394531 0.396484 0.398438 0.400391 0.402344 0.404297
0.40625 0.408203 0.410156 0.412109 0.414062 0.416016 0.417969 0.419922
0.421875 0.423828 0.425781 0.427734 0.429688 0.431641 0.433594 0.435547
0.4375 0.439453 0.441406 0.443359 0.445312 0.447266 0.449219 0.451172
0.453125 0.455078 0.457031 0.458984 0.460938 0.462891 0.464844 0.466797
0.46875 0.470703 0.472656 0.474609 0.476562 0.478516 0.480469 0.482422
0.484375 0.486328 0.488281 0.490234 0.492188 0.494141 0.496094 0.498047
0.5 0.501953 0.503906 0.505859 0.507812 0.509766 0.511719 0.513672
0.515625 0.517578 0.519531 0.521484 0.523438 0.525391 0.527344 0.529297
0.53125 0.533203 0.535156 0.537109 0.539062 0.541016 0.542969 0.544922
0.546875 0.548828 0.550781 0.552734 0.554688 0.556641 0.558594 0.560547
0.5625 0.564453 0.566406 0.568359 0.570312 0.572266 0.574219 0.576172
0.578125 0.580078 0.582031 0.583984 0.585938 0.587891 0.589844 0.591797
0.59375 0.595703 0.597656 0.599609 0.601562 0.603516 0.605469 0.607422
0.609375 0.611328 0.613281 0.615234 0.617188 0.619141 0.621094 0.623047
0.625 0.626953 0.628906 0.630859 0.632812 0.634766 0.636719 0.638672
0.640625 0.642578 0.644531 0.646484 0.648438 0.650391 0.652344 0.654297
0.65625 0.658203 0.660156 0.662109 0.664062 0.666016 0.667969 0.669922
0.671875 0.673828 0.675781 0.677734 0.679688 0.681641 0.683594 0.685547
0.6875 0.689453 0.691406 0.693359 0.695312 0.697266 0.699219 0.701172
0.703125 0.705078 0.707031 0.708984 0.710938 0.712891 0.714844 0.716797
0.71875 0.720703 0.722656 0.724609 0.726562 0.728516 0.730469 0.732422
0.734375 0.736328 0.738281 0.740234 0.742188 0.744141 0.746094 0.748047
0.75 0.751953 0.753906 0.755859 0.757812 0.759766 0.761719 0.763672
0.765625 0.767578 0.769531 0.771484 0.773438 0.775391 0.777344 0.779297
0.78125 0.783203 0.785156 0.787109 0.789062 0.791016 0.792969 0.794922
0.796875 0.798828 0.800781 0.802734 0.804688 0.806641 0.808594 0.810547
0.8125 0.814453 0.816406 0.818359 0.820312 0.822266 0.824219 0.826172
0.828125 0.830078 0.832031 0.833984 0.835938 0.837891 0.839844 0.841797
0.84375 0.845703 0.847656 0.849609 0.851562 0.853516 0.855469 0.857422
0.859375 0.861328 0.863281 0.865234 0.867188 0.869141 0.871094 0.873047
0.875 0.876953 0.878906 0.880859 0.882812 0.884766 0.886719 0.888672
0.890625 0.892578 0.894531 0.896484 0.898438 0.900391 0.902344 0.904297
0.90625 0.908203 0.910156 0.912109 0.914062 0.916016 0.917969 0.919922
0.921875 0.923828 0.925781 0.927734 0.929688 0.931641 0.933594 0.935547
0.9375 0.939453 0.941406 0.943359 0.945312 0.947266 0.949219 0.951172
0.953125 0.955078 0.957031 0.958984 0.960938 0.962891 0.964844 0.966797
0.96875 0.970703 0.972656 0.974609 0.976562 0.978516 0.980469 0.982422
0.984375 0.986328 0.988281 0.990234 0.992188 0.994141 0.996094 0.998047
0 0.00195312;
#X coords 0 1 514 0 60 30 1 0 0;
#X restore 818 209 graph;
#N canvas 0 50 450 250 (subpatch) 0;
#X array \$0-straight 515 float 3;
#A 0 1 1 1 1 1 1 1 1 1 1 1 1 1 1 1 1 1 1 1 1 1 1 1 1 1 1 1 1 1 1 1
1 1 1 1 1 1 1 1 1 1 1 1 1 1 1 1 1 1 1 1 1 1 1 1 1 1 1 1 1 1 1 1 1 1
1 1 1 1 1 1 1 1 1 1 1 1 1 1 1 1 1 1 1 1 1 1 1 1 1 1 1 1 1 1 1 1 1 1
1 1 1 1 1 1 1 1 1 1 1 1 1 1 1 1 1 1 1 1 1 1 1 1 1 1 1 1 1 1 1 1 1 1
1 1 1 1 1 1 1 1 1 1 1 1 1 1 1 1 1 1 1 1 1 1 1 1 1 1 1 1 1 1 1 1 1 1
1 1 1 1 1 1 1 1 1 1 1 1 1 1 1 1 1 1 1 1 1 1 1 1 1 1 1 1 1 1 1 1 1 1
1 1 1 1 1 1 1 1 1 1 1 1 1 1 1 1 1 1 1 1 1 1 1 1 1 1 1 1 1 1 1 1 1 1
1 1 1 1 1 1 1 1 1 1 1 1 1 1 1 1 1 1 1 1 1 1 1 1 1 1 1 1 1 1 1 1 1 1
1 1 1 1 1 1 1 1 1 1 1 1 1 1 1 1 1 1 1 1 1 1 1 1 1 1 1 1 1 1 1 1 1 1
1 1 1 1 1 1 1 1 1 1 1 1 1 1 1 1 1 1 1 1 1 1 1 1 1 1 1 1 1 1 1 1 1 1
1 1 1 1 1 1 1 1 1 1 1 1 1 1 1 1 1 1 1 1 1 1 1 1 1 1 1 1 1 1 1 1 1 1
1 1 1 1 1 1 1 1 1 1 1 1 1 1 1 1 1 1 1 1 1 1 1 1 1 1 1 1 1 1 1 1 1 1
1 1 1 1 1 1 1 1 1 1 1 1 1 1 1 1 1 1 1 1 1 1 1 1 1 1 1 1 1 1 1 1 1 1
1 1 1 1 1 1 1 1 1 1 1 1 1 1 1 1 1 1 1 1 1 1 1 1 1 1 1 1 1 1 1 1 1 1
1 1 1 1 1 1 1 1 1 1 1 1 1 1 1 1 1 1 1 1 1 1 1 1 1 1 1 1 1 1 1 1 1 1
1 1 1 1 1 1 1 1;
#X coords 0 1 515 0 60 30 1 0 0;
#X restore 728 134 graph;
#X obj 149 608 tabwrite~ \$0-win;
#X obj 11 378 t b b f, f 12;
#X obj 549 140 delay 50;
#X obj 549 165 t b b, f 11;
#X msg 602 110 0;
#X obj 549 190 f, f 5;
#X obj 623 190 delay 51;
#X obj 262 169 s \$0-params;
#X obj 262 54 list prepend in;
#X obj 404 54 list prepend out;
#X obj 262 94 list prepend fade;
#X obj 262 119 list trim;
#X obj 262 144 list prepend pass window;
#X obj 404 84 r \$0-fade-time;
#X obj 404 29 r \$0-fade-out;
#X obj 262 29 r \$0-fade-in;
#X obj 404 109 list prepend time;
#X msg 583 300 down;
#X msg 600 325 up;
#X obj 549 220 sel 0 1 2 3;
#X obj 230 409 r pd;
#X obj 230 434 route dsp;
#X obj 230 459 sel 1;
#X connect 0 0 19 0;
#X connect 2 0 4 1;
#X connect 2 0 24 1;
#X connect 3 0 2 0;
#X connect 4 0 18 0;
#X connect 5 0 4 0;
#X connect 5 0 7 0;
#X connect 6 0 5 0;
#X connect 7 0 9 0;
#X connect 8 0 4 0;
#X connect 8 0 9 0;
#X connect 10 0 11 0;
#X connect 11 1 8 0;
#X connect 13 0 14 0;
#X connect 15 0 29 0;
#X connect 16 0 20 0;
#X connect 16 0 24 0;
#X connect 16 0 34 0;
#X connect 17 0 20 0;
#X connect 17 0 24 0;
#X connect 17 0 34 0;
#X connect 18 0 1 0;
#X connect 19 0 12 0;
#X connect 19 0 13 0;
#X connect 20 0 21 0;
#X connect 22 0 42 0;
#X connect 23 0 22 0;
#X connect 24 0 23 0;
#X connect 25 0 28 0;
#X connect 26 0 32 0;
#X connect 27 0 43 0;
#X connect 28 0 36 0;
#X connect 29 0 44 0;
#X connect 29 1 47 1;
#X connect 30 0 42 0;
#X connect 30 1 31 0;
#X connect 31 0 26 1;
#X connect 32 0 22 0;
#X connect 34 0 35 0;
#X connect 35 0 33 0;
#X connect 36 0 26 0;
#X connect 37 0 36 1;
#X connect 43 0 30 0;
#X connect 43 1 25 0;
#X connect 43 2 28 1;
#X connect 43 2 32 1;
#X connect 43 2 37 0;
#X connect 44 0 45 0;
#X connect 45 0 47 0;
#X connect 45 0 30 0;
#X connect 45 1 48 0;
#X connect 46 0 44 1;
#X connect 47 0 61 0;
#X connect 48 0 46 0;
#X connect 50 0 52 0;
#X connect 51 0 52 0;
#X connect 52 0 53 0;
#X connect 53 0 54 0;
#X connect 54 0 49 0;
#X connect 55 0 58 0;
#X connect 56 0 51 0;
#X connect 57 0 50 0;
#X connect 58 0 52 0;
#X connect 59 0 20 0;
#X connect 59 0 24 0;
#X connect 59 0 34 0;
#X connect 60 0 20 0;
#X connect 60 0 24 0;
#X connect 60 0 34 0;
#X connect 61 0 16 0;
#X connect 61 1 17 0;
#X connect 61 2 59 0;
#X connect 61 3 60 0;
#X connect 62 0 63 0;
#X connect 63 0 64 0;
#X connect 64 0 25 0;
#X restore 12 585 pd window;
#N canvas 822 65 1366 685 grain 0;
#N canvas 914 35 449 708 grain-duration 0;
#N canvas 1027 35 336 708 unit-convert 0;
#X obj 62 162 spigot, f 7;
#X obj 141 162 spigot;
#X obj 62 12 inlet;
#X obj 62 112 f;
#X obj 108 12 inlet;
#X msg 108 112 1;
#X msg 180 112 1;
#X msg 140 62 0;
#X obj 62 242 list prepend pass duration;
#X obj 62 267 s \$0-params;
#X obj 192 152 r \$0-sample-rate;
#X obj 108 37 t f b;
#X obj 20 37 r \$0-reload;
#X obj 108 87 sel 0 1, f 21;
#X text 59 313 en caso de estar usando la unidad de ms \, la duración
de grano se convierte a samples y luego es enviada;
#X obj 192 177 * 0.001;
#X obj 62 202 *, f 19;
#X connect 0 0 16 0;
#X connect 1 0 8 0;
#X connect 2 0 3 0;
#X connect 3 0 0 0;
#X connect 3 0 1 0;
#X connect 4 0 11 0;
#X connect 5 0 0 1;
#X connect 6 0 1 1;
#X connect 7 0 0 1;
#X connect 7 0 1 1;
#X connect 8 0 9 0;
#X connect 10 0 15 0;
#X connect 11 0 13 0;
#X connect 11 1 7 0;
#X connect 12 0 3 0;
#X connect 13 0 5 0;
#X connect 13 1 6 0;
#X connect 15 0 16 1;
#X connect 16 0 8 0;
#X restore 42 121 pd unit-convert;
#N canvas 1027 35 336 708 unit-display 0;
#X obj 191 379 f;
#X obj 191 289 spigot;
#X obj 256 289 spigot;
#X msg 349 219 0;
#X obj 11 49 inlet;
#X obj 191 219 f;
#X obj 191 49 inlet;
#X msg 230 219 1;
#X msg 295 219 1;
#X obj 191 429 s \$0-grain-duration-r;
#X msg 191 404 set \$1;
#X obj 191 249 change;
#X obj 191 149 t b f b, f 23;
#X obj 230 179 sel 1 2, f 19;
#X obj 191 99 + 1;
#X obj 191 124 change;
#X obj 316 274 r \$0-sample-rate;
#X obj 191 74 spigot;
#X text 58 49 duración de grano;
#X text 238 49 unidad (0/1 = ms/samples);
#X obj 452 249 symbol;
#X msg 432 219 ms;
#X msg 472 219 samp;
#X msg 452 274 label \$1;
#X obj 452 299 s \$0-grain-duration-unit-r;
#X text 251 522 los efectos de este subparche son sólo gráficos \,
se encarga de convertir el valor previo de la duración de grano al
cambiar de unidad para actualizar el número en la interfaz \, y también
cambia la label para que refleje el cambio de unidad;
#X obj 316 299 * 0.001;
#X obj 256 339 *, f 9;
#X obj 191 339 /;
#X connect 0 0 10 0;
#X connect 0 0 5 1;
#X connect 1 0 28 0;
#X connect 2 0 27 0;
#X connect 3 0 2 1;
#X connect 3 0 1 1;
#X connect 4 0 5 1;
#X connect 5 0 11 0;
#X connect 6 0 17 0;
#X connect 7 0 1 1;
#X connect 8 0 2 1;
#X connect 10 0 9 0;
#X connect 11 0 1 0;
#X connect 11 0 2 0;
#X connect 12 0 5 0;
#X connect 12 1 13 0;
#X connect 12 2 3 0;
#X connect 13 0 7 0;
#X connect 13 0 21 0;
#X connect 13 1 8 0;
#X connect 13 1 22 0;
#X connect 14 0 15 0;
#X connect 15 0 12 0;
#X connect 16 0 17 1;
#X connect 16 0 26 0;
#X connect 17 0 14 0;
#X connect 20 0 23 0;
#X connect 21 0 20 0;
#X connect 22 0 20 0;
#X connect 23 0 24 0;
#X connect 26 0 27 1;
#X connect 26 0 28 1;
#X connect 27 0 0 0;
#X connect 28 0 0 0;
#X restore 42 72 pd unit-display;
#X obj 12 33 r \$0-grain-duration;
#X obj 174 33 r \$0-grain-duration-unit;
#X connect 2 0 0 0;
#X connect 2 0 1 0;
#X connect 3 0 1 1;
#X connect 3 0 0 1;
#X restore 12 12 pd grain-duration;
#N canvas 914 35 449 708 grain-rate 0;
#X obj 29 135 r \$0-grain-rate;
#X obj 191 135 r \$0-grain-rate-unit;
#N canvas 1027 35 336 708 unit-convert 0;
#X obj 72 162 spigot, f 7;
#X obj 168 162 spigot;
#X obj 72 12 inlet;
#X obj 72 112 f;
#X obj 118 12 inlet;
#X msg 118 112 1;
#X msg 207 112 1;
#X msg 150 62 0;
#X obj 72 227 list prepend rate;
#X obj 72 252 s \$0-params;
#X obj 228 137 r \$0-sample-rate;
#X obj 118 87 sel 0 1, f 26;
#X obj 118 37 t f b;
#X obj 30 37 r \$0-reload;
#X obj 228 162 * 0.001;
#X obj 168 187 /, f 9;
#X connect 0 0 8 0;
#X connect 1 0 15 0;
#X connect 2 0 3 0;
#X connect 3 0 0 0;
#X connect 3 0 1 0;
#X connect 4 0 12 0;
#X connect 5 0 0 1;
#X connect 6 0 1 1;
#X connect 7 0 0 1;
#X connect 7 0 1 1;
#X connect 8 0 9 0;
#X connect 10 0 14 0;
#X connect 11 0 5 0;
#X connect 11 1 6 0;
#X connect 12 0 11 0;
#X connect 12 1 7 0;
#X connect 13 0 3 0;
#X connect 14 0 15 1;
#X connect 15 0 8 0;
#X restore 59 216 pd unit-convert;
#N canvas 3 35 1360 708 unit-display 0;
#X obj 231 352 f;
#X obj 231 262 spigot;
#X obj 292 262 spigot;
#X msg 382 212 0;
#X obj 12 12 inlet;
#X obj 231 212 f;
#X obj 231 12 inlet;
#X msg 270 212 1;
#X msg 331 212 1;
#X msg 231 382 set \$1;
#X obj 231 412 s \$0-grain-rate-r;
#X obj 231 132 t b f b, f 22;
#X obj 231 72 + 1;
#X obj 231 102 change;
#X obj 270 162 sel 1 2, f 18;
#X obj 352 247 r \$0-sample-rate;
#X obj 231 42 spigot;
#X text 67 550 los efectos de este subparche son sólo gráficos \,
se encarga de convertir el valor previo de frecuencia de encendido
automático de los granos al cambiar de unidad para actualizar el número
en la interfaz \, y también cambia la label para que refleje el cambio
de unidad;
#X text 56 12 frecuencia de encendido;
#X text 276 11 unidad de frecuencia (0/1 = ms/samples);
#X obj 488 232 symbol;
#X msg 472 202 ms;
#X msg 505 202 samp;
#X msg 488 257 label \$1;
#X obj 488 282 s \$0-grain-rate-unit-r;
#X obj 231 302 /;
#X obj 352 272 * 0.001;
#X obj 292 302 *, f 9;
#X connect 0 0 9 0;
#X connect 0 0 5 1;
#X connect 1 0 25 0;
#X connect 2 0 27 0;
#X connect 3 0 2 1;
#X connect 3 0 1 1;
#X connect 4 0 5 1;
#X connect 5 0 1 0;
#X connect 5 0 2 0;
#X connect 6 0 16 0;
#X connect 7 0 1 1;
#X connect 8 0 2 1;
#X connect 9 0 10 0;
#X connect 11 0 5 0;
#X connect 11 1 14 0;
#X connect 11 2 3 0;
#X connect 12 0 13 0;
#X connect 13 0 11 0;
#X connect 14 0 7 0;
#X connect 14 0 21 0;
#X connect 14 1 8 0;
#X connect 14 1 22 0;
#X connect 15 0 16 1;
#X connect 15 0 26 0;
#X connect 16 0 12 0;
#X connect 20 0 23 0;
#X connect 21 0 20 0;
#X connect 22 0 20 0;
#X connect 23 0 24 0;
#X connect 25 0 0 0;
#X connect 26 0 25 1;
#X connect 26 0 27 1;
#X connect 27 0 0 0;
#X restore 59 167 pd unit-display;
#X obj 465 186 list prepend rate metro;
#X obj 465 210 s \$0-params;
#X obj 465 162 r \$0-grain-auto;
#X connect 0 0 2 0;
#X connect 0 0 3 0;
#X connect 1 0 3 1;
#X connect 1 0 2 1;
#X connect 4 0 5 0;
#X connect 6 0 4 0;
#X restore 145 12 pd grain-rate;
#X obj 306 78 r \$0-grain-dir;
#X obj 316 108 sel 0 1 2, f 23;
#X obj 369 228 s \$0-grain-dir-r;
#X msg 369 203 label \$1;
#X msg 316 138 forward;
#X msg 436 138 random;
#X obj 369 178 symbol;
#X obj 306 258 list prepend pass dir;
#X obj 306 283 s \$0-params;
#X obj 31 254 * 0.01;
#X obj 31 304 s \$0-params;
#X obj 31 384 s \$0-params;
#X obj 31 334 r \$0-stereo-chance;
#X obj 31 229 r \$0-stereo-amount;
#X obj 31 279 list prepend pass stereo amount;
#X obj 31 359 list prepend pass stereo chance;
#X msg 369 138 reverse;
#X connect 2 0 3 0;
#X connect 2 0 9 0;
#X connect 3 0 6 0;
#X connect 3 1 18 0;
#X connect 3 2 7 0;
#X connect 5 0 4 0;
#X connect 6 0 8 0;
#X connect 7 0 8 0;
#X connect 8 0 5 0;
#X connect 9 0 10 0;
#X connect 11 0 16 0;
#X connect 14 0 17 0;
#X connect 15 0 11 0;
#X connect 16 0 12 0;
#X connect 17 0 13 0;
#X connect 18 0 8 0;
#X restore 12 485 pd grain;
#N canvas 914 35 449 708 player 0;
#X obj 12 157 list prepend;
#X obj 12 182 list trim;
#X msg 70 127 manual;
#X msg 116 127 noteon;
#X obj 337 111 t b b;
#X msg 293 141 0;
#X msg 369 141 1;
#X obj 309 241 spigot, f 9;
#X obj 309 271 * 0.01;
#X obj 12 22 r \$0-playhead;
#X obj 293 51 r \$0-play;
#X obj 309 171 r \$0-speed;
#X obj 61 47 r \$0-playhead-reset;
#X obj 309 211 f;
#X obj 12 127 f;
#X obj 61 72 t b f;
#X obj 293 81 sel 0 1, f 13;
#X obj 93 97 sel 0 1;
#X obj 12 47 * 0.01;
#X obj 293 301 list prepend pass playhead speed;
#X obj 293 331 s \$0-params;
#X obj 12 207 list prepend pass playhead pos;
#X obj 12 232 s \$0-params;
#X obj 105 332 r \$0-pingpong;
#X obj 105 357 list prepend pingpong;
#X obj 105 382 s \$0-params;
#X obj 265 450 r \$0-loop-start;
#X obj 405 450 r \$0-loop-end;
#X obj 405 500 clip;
#X obj 277 380 loadbang;
#X msg 277 420 0;
#X msg 430 420 100;
#X obj 265 500 clip;
#X obj 265 550 list prepend start;
#X obj 405 550 list prepend end;
#X obj 265 575 list trim;
#X obj 405 575 list trim;
#X obj 265 615 list prepend loop;
#X obj 265 640 s \$0-params;
#X obj 265 525 * 0.01;
#X obj 405 525 * 0.01;
#X connect 0 0 1 0;
#X connect 1 0 21 0;
#X connect 2 0 0 1;
#X connect 3 0 0 1;
#X connect 4 0 13 0;
#X connect 4 1 6 0;
#X connect 5 0 7 1;
#X connect 5 0 19 0;
#X connect 6 0 7 1;
#X connect 7 0 8 0;
#X connect 8 0 19 0;
#X connect 9 0 18 0;
#X connect 10 0 16 0;
#X connect 11 0 13 0;
#X connect 12 0 15 0;
#X connect 13 0 7 0;
#X connect 14 0 0 0;
#X connect 15 0 14 0;
#X connect 15 1 17 0;
#X connect 16 0 5 0;
#X connect 16 1 4 0;
#X connect 17 0 2 0;
#X connect 17 1 3 0;
#X connect 18 0 14 0;
#X connect 19 0 20 0;
#X connect 21 0 22 0;
#X connect 23 0 24 0;
#X connect 24 0 25 0;
#X connect 26 0 32 0;
#X connect 26 0 28 1;
#X connect 27 0 28 0;
#X connect 27 0 32 2;
#X connect 28 0 40 0;
#X connect 29 0 30 0;
#X connect 29 0 31 0;
#X connect 30 0 32 1;
#X connect 31 0 28 2;
#X connect 32 0 39 0;
#X connect 33 0 35 0;
#X connect 34 0 36 0;
#X connect 35 0 37 0;
#X connect 36 0 37 0;
#X connect 37 0 38 0;
#X connect 39 0 33 0;
#X connect 40 0 34 0;
#X restore 12 535 pd player;
#N canvas 686 35 677 708 offset 0;
#N canvas 1027 35 336 708 offset-pitch 0;
#X obj 222 150 symbol;
#X obj 12 12 r \$0-offset-pitch;
#X obj 222 70 r \$0-offset-pitch-unit;
#N canvas 3 35 1360 708 unit-convert 0;
#X obj 22 162 spigot, f 7;
#X obj 118 162 spigot;
#X obj 22 12 inlet;
#X obj 22 112 f;
#X obj 68 12 inlet;
#X obj 68 62 list trim;
#X msg 68 112 1;
#X msg 157 112 1;
#X obj 68 37 t a b, f 11;
#X msg 142 62 0;
#X obj 68 87 route m c, f 26;
#X obj 22 242 s \$0-params;
#X obj 22 217 list prepend pass offset pitch;
#X obj 118 187 * 0.01;
#X connect 0 0 12 0;
#X connect 1 0 13 0;
#X connect 2 0 3 0;
#X connect 3 0 0 0;
#X connect 3 0 1 0;
#X connect 4 0 8 0;
#X connect 5 0 10 0;
#X connect 6 0 0 1;
#X connect 7 0 1 1;
#X connect 8 0 5 0;
#X connect 8 1 9 0;
#X connect 9 0 1 1;
#X connect 9 0 0 1;
#X connect 10 0 6 0;
#X connect 10 1 7 0;
#X connect 12 0 11 0;
#X connect 13 0 12 0;
#X restore 12 196 pd unit-convert;
#X msg 222 175 label \$1;
#X obj 222 95 sel 0 1, f 9;
#X obj 768 12 r \$0-offset-pitch-precision;
#X obj 485 12 r \$0-offset-pitch-chance;
#N canvas 3 35 1360 708 unit-display 0;
#X obj 81 271 f;
#X obj 81 206 spigot;
#X obj 146 206 spigot;
#X msg 239 141 0;
#X obj 12 12 inlet;
#X obj 81 141 f;
#X obj 81 12 inlet;
#X msg 120 141 1;
#X msg 185 141 1;
#X msg 81 296 set \$1;
#X obj 81 166 change;
#X obj 81 86 t b f b, f 23;
#X obj 120 116 sel 1 2, f 19;
#X obj 81 36 + 1;
#X obj 81 61 change;
#X obj 81 321 s \$0-offset-pitch-r;
#X obj 81 231 * 0.01;
#X obj 146 231 * 100;
#X connect 0 0 9 0;
#X connect 0 0 5 1;
#X connect 1 0 16 0;
#X connect 2 0 17 0;
#X connect 3 0 2 1;
#X connect 3 0 1 1;
#X connect 4 0 5 1;
#X connect 5 0 10 0;
#X connect 6 0 13 0;
#X connect 7 0 1 1;
#X connect 8 0 2 1;
#X connect 9 0 15 0;
#X connect 10 0 1 0;
#X connect 10 0 2 0;
#X connect 11 0 5 0;
#X connect 11 1 12 0;
#X connect 11 2 3 0;
#X connect 12 0 7 0;
#X connect 12 1 8 0;
#X connect 13 0 14 0;
#X connect 14 0 11 0;
#X connect 16 0 0 0;
#X connect 17 0 0 0;
#X restore 32 167 pd unit-display;
#X obj 222 200 s \$0-offset-pitch-unit-r;
#X msg 222 120 m;
#X msg 252 120 c;
#X obj 768 177 s \$0-params;
#X obj 768 137 list prepend pass offset pitch precis;
#X obj 485 137 list prepend pass offset pitch chance;
#X obj 768 37 t b f;
#X msg 768 62 100;
#X obj 768 87 -, f 5;
#X obj 768 112 * 0.01;
#X connect 0 0 3 1;
#X connect 0 0 4 0;
#X connect 1 0 3 0;
#X connect 1 0 8 0;
#X connect 2 0 5 0;
#X connect 2 0 8 1;
#X connect 4 0 9 0;
#X connect 5 0 10 0;
#X connect 5 1 11 0;
#X connect 6 0 15 0;
#X connect 7 0 14 0;
#X connect 10 0 0 0;
#X connect 11 0 0 0;
#X connect 13 0 12 0;
#X connect 14 0 12 0;
#X connect 15 0 16 0;
#X connect 15 1 17 1;
#X connect 16 0 17 0;
#X connect 17 0 18 0;
#X connect 18 0 13 0;
#X restore 152 11 pd offset-pitch;
#N canvas 1027 35 336 689 offset-duration 0;
#X obj 243 155 symbol;
#X msg 243 125 ms;
#N canvas 1096 65 267 640 unit-convert 0;
#X obj 22 163 spigot, f 7;
#X obj 104 163 spigot, f 8;
#X obj 22 12 inlet;
#X obj 22 112 f;
#X obj 68 12 inlet;
#X obj 68 62 list trim;
#X msg 68 112 1;
#X msg 157 112 1;
#X obj 68 37 t a b, f 11;
#X msg 142 62 0;
#X obj 68 87 route ms sp, f 26;
#X obj 22 228 list prepend pass offset duration;
#X obj 22 253 s \$0-params;
#X obj 173 138 r \$0-sample-rate;
#X obj 173 163 * 0.001;
#X obj 22 188 *, f 22;
#X connect 0 0 15 0;
#X connect 1 0 11 0;
#X connect 2 0 3 0;
#X connect 3 0 0 0;
#X connect 3 0 1 0;
#X connect 4 0 8 0;
#X connect 5 0 10 0;
#X connect 6 0 0 1;
#X connect 7 0 1 1;
#X connect 8 0 5 0;
#X connect 8 1 9 0;
#X connect 9 0 1 1;
#X connect 9 0 0 1;
#X connect 10 0 6 0;
#X connect 10 1 7 0;
#X connect 11 0 12 0;
#X connect 13 0 14 0;
#X connect 14 0 15 1;
#X connect 15 0 11 0;
#X restore 12 186 pd unit-convert;
#X obj 12 12 r \$0-offset-duration;
#X obj 243 70 r \$0-offset-duration-unit;
#X msg 243 180 label \$1;
#X obj 243 95 sel 0 1;
#X obj 768 12 r \$0-offset-duration-precision;
#X obj 464 12 r \$0-offset-duration-chance;
#N canvas 1096 65 267 678 unit-display 0;
#X obj 71 312 f;
#X obj 71 242 spigot;
#X obj 136 242 spigot;
#X msg 229 167 0;
#X obj 12 12 inlet;
#X obj 71 167 f;
#X obj 71 12 inlet;
#X msg 110 167 1;
#X msg 175 167 1;
#X msg 71 337 set \$1;
#X obj 71 192 change;
#X obj 71 112 t b f b, f 23;
#X obj 110 142 sel 1 2, f 19;
#X obj 71 62 + 1;
#X obj 71 87 change;
#X obj 71 362 s \$0-offset-duration-r;
#X obj 189 217 r \$0-sample-rate;
#X obj 71 37 spigot;
#X obj 189 242 * 0.001;
#X obj 136 272 *, f 8;
#X obj 71 272 /;
#X connect 0 0 9 0;
#X connect 0 0 5 1;
#X connect 1 0 20 0;
#X connect 2 0 19 0;
#X connect 3 0 2 1;
#X connect 3 0 1 1;
#X connect 4 0 5 1;
#X connect 5 0 10 0;
#X connect 6 0 17 0;
#X connect 7 0 1 1;
#X connect 8 0 2 1;
#X connect 9 0 15 0;
#X connect 10 0 1 0;
#X connect 10 0 2 0;
#X connect 11 0 5 0;
#X connect 11 1 12 0;
#X connect 11 2 3 0;
#X connect 12 0 7 0;
#X connect 12 1 8 0;
#X connect 13 0 14 0;
#X connect 14 0 11 0;
#X connect 16 0 17 1;
#X connect 16 0 18 0;
#X connect 17 0 13 0;
#X connect 18 0 19 1;
#X connect 18 0 20 1;
#X connect 19 0 0 0;
#X connect 20 0 0 0;
#X restore 32 157 pd unit-display;
#X obj 243 205 s \$0-offset-duration-unit-r;
#X msg 268 125 sp;
#X obj 768 177 s \$0-params;
#X obj 768 137 list prepend pass offset duration precis;
#X obj 464 137 list prepend pass offset duration chance;
#X obj 768 37 t b f;
#X msg 768 62 100;
#X obj 768 87 -, f 5;
#X obj 768 112 * 0.01;
#X connect 0 0 2 1;
#X connect 0 0 5 0;
#X connect 1 0 0 0;
#X connect 3 0 2 0;
#X connect 3 0 9 0;
#X connect 4 0 6 0;
#X connect 4 0 9 1;
#X connect 5 0 10 0;
#X connect 6 0 1 0;
#X connect 6 1 11 0;
#X connect 7 0 15 0;
#X connect 8 0 14 0;
#X connect 11 0 0 0;
#X connect 13 0 12 0;
#X connect 14 0 12 0;
#X connect 15 0 16 0;
#X connect 15 1 17 1;
#X connect 16 0 17 0;
#X connect 17 0 18 0;
#X connect 18 0 13 0;
#X restore 271 11 pd offset-duration;
#N canvas 3 35 450 708 offset-playhead 0;
#X obj 215 155 symbol;
#X msg 215 125 ms;
#N canvas 3 35 677 708 unit-convert 0;
#X obj 22 166 spigot, f 7;
#X obj 118 166 spigot;
#X obj 22 12 inlet;
#X obj 22 116 f;
#X obj 68 12 inlet;
#X obj 68 66 list trim;
#X msg 68 116 1;
#X msg 157 116 1;
#X obj 68 41 t a b, f 11;
#X msg 142 66 0;
#X obj 68 91 route ms sp, f 26;
#X obj 22 231 list prepend pass offset playhead;
#X obj 22 256 s \$0-params;
#X obj 173 141 r \$0-sample-rate;
#X obj 22 191 *, f 22;
#X obj 173 166 * 0.001;
#X connect 0 0 14 0;
#X connect 1 0 11 0;
#X connect 2 0 3 0;
#X connect 3 0 0 0;
#X connect 3 0 1 0;
#X connect 4 0 8 0;
#X connect 5 0 10 0;
#X connect 6 0 0 1;
#X connect 7 0 1 1;
#X connect 8 0 5 0;
#X connect 8 1 9 0;
#X connect 9 0 1 1;
#X connect 9 0 0 1;
#X connect 10 0 6 0;
#X connect 10 1 7 0;
#X connect 11 0 12 0;
#X connect 13 0 15 0;
#X connect 14 0 11 0;
#X connect 15 0 14 1;
#X restore 12 215 pd unit-convert;
#X msg 215 180 label \$1;
#X obj 215 95 sel 0 1;
#X obj 215 70 r \$0-offset-playhead-unit;
#X obj 768 12 r \$0-offset-playhead-precision;
#X obj 464 12 r \$0-offset-playhead-chance;
#X obj 12 12 r \$0-offset-playhead;
#X obj 215 205 s \$0-offset-playhead-unit-r;
#N canvas 3 35 677 708 unit-display 0;
#X obj 71 316 f;
#X obj 71 236 spigot;
#X obj 136 236 spigot;
#X msg 229 167 0;
#X obj 12 12 inlet;
#X obj 71 167 f;
#X obj 71 12 inlet;
#X msg 110 167 1;
#X msg 175 167 1;
#X msg 71 341 set \$1;
#X obj 71 192 change;
#X obj 71 112 t b f b, f 23;
#X obj 110 142 sel 1 2, f 19;
#X obj 71 62 + 1;
#X obj 71 87 change;
#X obj 71 366 s \$0-offset-playhead-r;
#X obj 196 211 r \$0-sample-rate;
#X obj 71 37 spigot;
#X obj 196 236 * 0.001;
#X obj 136 266 *, f 9;
#X obj 71 266 /;
#X connect 0 0 9 0;
#X connect 0 0 5 1;
#X connect 1 0 20 0;
#X connect 2 0 19 0;
#X connect 3 0 2 1;
#X connect 3 0 1 1;
#X connect 4 0 5 1;
#X connect 5 0 10 0;
#X connect 6 0 17 0;
#X connect 7 0 1 1;
#X connect 8 0 2 1;
#X connect 9 0 15 0;
#X connect 10 0 1 0;
#X connect 10 0 2 0;
#X connect 11 0 5 0;
#X connect 11 1 12 0;
#X connect 11 2 3 0;
#X connect 12 0 7 0;
#X connect 12 1 8 0;
#X connect 13 0 14 0;
#X connect 14 0 11 0;
#X connect 16 0 17 1;
#X connect 16 0 18 0;
#X connect 17 0 13 0;
#X connect 18 0 19 1;
#X connect 18 0 20 1;
#X connect 19 0 0 0;
#X connect 20 0 0 0;
#X restore 32 186 pd unit-display;
#X msg 240 125 sp;
#X obj 768 137 list prepend pass offset playhead precis;
#X obj 768 177 s \$0-params;
#X obj 464 137 list prepend pass offset playhead chance;
#X obj 768 37 t b f;
#X msg 768 62 100;
#X obj 768 87 -, f 5;
#X obj 768 112 * 0.01;
#X connect 0 0 2 1;
#X connect 0 0 3 0;
#X connect 1 0 0 0;
#X connect 3 0 9 0;
#X connect 4 0 1 0;
#X connect 4 1 11 0;
#X connect 5 0 4 0;
#X connect 5 0 10 1;
#X connect 6 0 15 0;
#X connect 7 0 14 0;
#X connect 8 0 2 0;
#X connect 8 0 10 0;
#X connect 11 0 0 0;
#X connect 12 0 13 0;
#X connect 14 0 13 0;
#X connect 15 0 16 0;
#X connect 15 1 17 1;
#X connect 16 0 17 0;
#X connect 17 0 18 0;
#X connect 18 0 12 0;
#X restore 12 11 pd offset-playhead;
#X restore 12 510 pd offset;
#X obj 12 300 *~;
#N canvas 686 35 677 708 out 0;
#X msg 12 114 \$1 1;
#X obj 12 167 outlet~;
#X obj 12 90 dbtorms;
#X obj 12 138 line~;
#X obj 12 37 r \$0-out;
#X obj 12 66 + 100;
#X connect 0 0 3 0;
#X connect 2 0 0 0;
#X connect 3 0 1 0;
#X connect 4 0 5 0;
#X connect 5 0 2 0;
#X restore 90 271 pd out gain;
#X obj 212 300 *~;
#N canvas 276 82 269 662 voices 0;
#X msg 12 122 1;
#X msg 47 122 0;
#X obj 12 92 delay 10;
#X obj 112 107 symbol;
#X msg 112 132 label \$1;
#X obj 112 52 sel 0 1, f 12;
#X obj 12 12 r \$0-poly;
#X msg 112 77 mono;
#X msg 152 77 poly;
#X obj 112 157 s \$0-poly-r;
#X obj 12 322 outlet;
#X obj 12 187 list prepend power;
#X obj 12 292 spigot;
#X msg 12 52 bang;
#X obj 51 217 loadbang;
#X obj 51 242 delay 10;
#X msg 51 267 1;
#X connect 0 0 11 0;
#X connect 1 0 11 0;
#X connect 2 0 0 0;
#X connect 3 0 4 0;
#X connect 4 0 9 0;
#X connect 5 0 7 0;
#X connect 5 1 8 0;
#X connect 6 0 5 0;
#X connect 6 0 13 0;
#X connect 7 0 3 0;
#X connect 8 0 3 0;
#X connect 11 0 12 0;
#X connect 12 0 10 0;
#X connect 13 0 1 0;
#X connect 13 0 2 0;
#X connect 14 0 15 0;
#X connect 15 0 16 0;
#X connect 16 0 12 1;
#X restore 121 119 pd voices;
#X f 11;
#N canvas 685 52 679 692 route-inlet-messages 0;
#N canvas 913 52 451 692 sample 0;
#X msg 45 64 0;
#X obj 45 35 loadbang;
#X obj 45 287 s \$0-playhead;
#X obj 45 316 s \$0-playhead-reset;
#X obj 45 229 s \$0-sample-note;
#X obj 45 200 s \$0-pingpong;
#X obj 80 132 s \$0-speed;
#X msg 80 64 100;
#X obj 45 258 s \$0-loop-start;
#X obj 80 161 s \$0-loop-end;
#X connect 0 0 4 0;
#X connect 0 0 5 0;
#X connect 0 0 8 0;
#X connect 0 0 3 0;
#X connect 0 0 2 0;
#X connect 1 0 0 0;
#X connect 1 0 7 0;
#X connect 7 0 6 0;
#X connect 7 0 9 0;
#X restore 20 19 pd sample;
#N canvas 913 52 451 692 window 0;
#X obj 36 22 loadbang;
#X obj 61 148 s \$0-fade-time;
#X msg 61 51 10;
#X connect 0 0 2 0;
#X connect 2 0 1 0;
#X restore 97 19 pd window;
#N canvas 913 52 451 692 offset 0;
#N canvas 1026 52 338 692 playhead 0;
#X msg 39 70 0;
#X obj 39 42 loadbang;
#X obj 39 138 s \$0-offset-playhead-unit;
#X obj 74 99 s \$0-offset-playhead-chance;
#X msg 74 70 100;
#X obj 39 167 s \$0-offset-playhead-precision;
#X connect 0 0 2 0;
#X connect 0 0 5 0;
#X connect 1 0 0 0;
#X connect 1 0 4 0;
#X connect 4 0 3 0;
#X restore 12 80 pd playhead;
#N canvas 1026 52 338 692 pitch 0;
#X msg 108 59 0;
#X obj 38 30 loadbang;
#X obj 73 127 s \$0-offset-pitch-unit;
#X obj 38 166 s \$0-offset-pitch-chance;
#X msg 38 59 100;
#X msg 73 59 1;
#X obj 108 88 s \$0-offset-pitch-precision;
#X connect 0 0 6 0;
#X connect 1 0 0 0;
#X connect 1 0 4 0;
#X connect 1 0 5 0;
#X connect 4 0 3 0;
#X connect 5 0 2 0;
#X restore 103 80 pd pitch;
#N canvas 1026 52 338 692 duration 0;
#X msg 32 75 0;
#X obj 32 17 loadbang;
#X obj 67 143 s \$0-offset-duration;
#X obj 32 182 s \$0-offset-duration-unit;
#X obj 109 104 s \$0-offset-duration-precision;
#X msg 109 75 100;
#X obj 67 46 delay 1000;
#X msg 67 75 -3000;
#X connect 0 0 3 0;
#X connect 1 0 0 0;
#X connect 1 0 5 0;
#X connect 1 0 6 0;
#X connect 5 0 4 0;
#X connect 6 0 7 0;
#X connect 7 0 2 0;
#X restore 173 80 pd duration;
#X restore 174 19 pd offset;
#X msg 682 478 100;
#X obj 682 450 loadbang;
#X obj 717 592 s \$0-poly;
#N canvas 913 52 451 692 stereo 0;
#X obj 34 18 loadbang;
#X obj 59 76 s \$0-stereo-chance;
#X msg 59 47 100;
#X connect 0 0 2 0;
#X connect 2 0 1 0;
#X restore 251 19 pd stereo;
#X msg 717 479 1;
#X obj 682 622 s \$0-sus;
#X obj 787 508 s \$0-att;
#X obj 787 532 s \$0-rel;
#X msg 787 479 50;
#X obj 607 117 loadbang;
#X msg 607 146 0;
#X obj 782 38 delay 200;
#X obj 782 149 f;
#X obj 810 96 loadbang;
#X msg 810 120 1;
#X obj 802 239 f;
#X obj 832 329 f;
#X obj 862 419 f;
#X obj 892 509 f;
#X obj 922 599 f;
#X obj 800 67 r \$0-note0-tog;
#X obj 820 210 r \$0-note1-tog;
#X obj 880 390 r \$0-note3-tog;
#X obj 910 480 r \$0-note4-tog;
#X obj 940 570 r \$0-note5-tog;
#X obj 850 300 r \$0-note2-tog;
#X obj 234 131 t b b;
#X msg 309 160 0;
#X msg 234 160 100;
#X obj 234 102 loadbang;
#X obj 607 200 s \$0-grain-duration-unit;
#X obj 607 176 s \$0-grain-rate-unit;
#X obj 24 135 inlet;
#X obj 24 160 route rate length chance dir;
#X msg 178 190 set \$1;
#X obj 178 215 s \$0-grain-dir-r;
#X msg 130 350 set \$1;
#X obj 130 375 s \$0-grain-chance-r;
#X msg 259 160 1;
#X msg 275 301 set \$1;
#X obj 275 326 s \$0-smear-r;
#X msg 329 381 set \$1;
#X obj 329 406 s \$0-offset-pitch-r;
#X msg 383 301 set \$1;
#X obj 383 326 s \$0-stereo-amount-r;
#X msg 438 461 set \$1;
#X obj 438 486 s \$0-feedback-r;
#X msg 492 381 set \$1;
#X obj 492 406 s \$0-drywet-r;
#X obj 245 511 route shape smooth;
#X msg 255 541 set \$1;
#X obj 255 566 s \$0-window-sel-r;
#X msg 316 646 set \$1;
#X obj 306 621 != 0;
#X obj 316 671 s \$0-smooth-r;
#N canvas 913 52 451 692 note0 0;
#X obj 30 66 inlet;
#X obj 30 91 route float gain transpose;
#X msg 40 146 set \$1;
#X obj 40 171 s \$0-note0-tog-r;
#X obj 30 121 != 0;
#X msg 99 226 set \$1;
#X obj 99 251 s \$0-note0-vel-r;
#X msg 159 146 set \$1;
#X obj 159 171 s \$0-note0-pitch-r;
#X obj 209 316 s \$0-error;
#X obj 236 91 loadbang;
#X msg 286 116 0;
#X msg 236 116 1;
#X msg 261 116 100;
#X obj 30 196 s \$0-note0-tog-s;
#X obj 89 276 s \$0-note0-vel-s;
#X obj 149 196 s \$0-note0-pitch-s;
#X connect 0 0 1 0;
#X connect 1 0 4 0;
#X connect 1 1 5 0;
#X connect 1 1 15 0;
#X connect 1 2 7 0;
#X connect 1 2 16 0;
#X connect 1 3 9 0;
#X connect 2 0 3 0;
#X connect 4 0 2 0;
#X connect 4 0 14 0;
#X connect 5 0 6 0;
#X connect 7 0 8 0;
#X connect 10 0 12 0;
#X connect 10 0 13 0;
#X connect 10 0 11 0;
#X connect 11 0 8 0;
#X connect 12 0 3 0;
#X connect 13 0 6 0;
#X restore 512 592 pd note0;
#N canvas 913 52 451 692 note1 0;
#X obj 30 66 inlet;
#X obj 30 91 route float gain transpose;
#X msg 40 146 set \$1;
#X obj 30 121 != 0;
#X msg 99 226 set \$1;
#X msg 159 146 set \$1;
#X obj 209 316 s \$0-error;
#X obj 236 91 loadbang;
#X msg 236 116 0;
#X obj 99 251 s \$0-note1-vel-r;
#X obj 159 171 s \$0-note1-pitch-r;
#X obj 40 171 s \$0-note1-tog-r;
#X obj 30 196 s \$0-note1-tog-s;
#X obj 149 196 s \$0-note1-pitch-s;
#X obj 89 276 s \$0-note1-vel-s;
#X connect 0 0 1 0;
#X connect 1 0 3 0;
#X connect 1 1 4 0;
#X connect 1 1 14 0;
#X connect 1 2 5 0;
#X connect 1 2 13 0;
#X connect 1 3 6 0;
#X connect 2 0 11 0;
#X connect 3 0 2 0;
#X connect 3 0 12 0;
#X connect 4 0 9 0;
#X connect 5 0 10 0;
#X connect 7 0 8 0;
#X connect 8 0 9 0;
#X connect 8 0 10 0;
#X connect 8 0 11 0;
#X restore 531 617 pd note1;
#X obj 245 486 route window gain;
#X msg 388 541 set \$1;
#N canvas 913 52 451 692 note2 0;
#X obj 30 66 inlet;
#X obj 30 91 route float gain transpose;
#X msg 40 146 set \$1;
#X obj 30 121 != 0;
#X msg 99 226 set \$1;
#X msg 159 146 set \$1;
#X obj 209 316 s \$0-error;
#X obj 236 91 loadbang;
#X obj 99 251 s \$0-note2-vel-r;
#X obj 159 171 s \$0-note2-pitch-r;
#X obj 40 171 s \$0-note2-tog-r;
#X msg 236 116 0;
#X obj 89 276 s \$0-note2-vel-s;
#X obj 30 196 s \$0-note2-tog-s;
#X obj 149 196 s \$0-note2-pitch-s;
#X connect 0 0 1 0;
#X connect 1 0 3 0;
#X connect 1 1 4 0;
#X connect 1 1 12 0;
#X connect 1 2 5 0;
#X connect 1 2 14 0;
#X connect 1 3 6 0;
#X connect 2 0 10 0;
#X connect 3 0 2 0;
#X connect 3 0 13 0;
#X connect 4 0 8 0;
#X connect 5 0 9 0;
#X connect 7 0 11 0;
#X connect 11 0 8 0;
#X connect 11 0 10 0;
#X connect 11 0 9 0;
#X restore 550 642 pd note2;
#N canvas 913 52 451 692 note3 0;
#X obj 30 66 inlet;
#X obj 30 91 route float gain transpose;
#X msg 40 146 set \$1;
#X obj 30 121 != 0;
#X msg 99 226 set \$1;
#X msg 159 146 set \$1;
#X obj 209 316 s \$0-error;
#X obj 236 91 loadbang;
#X msg 236 116 0;
#X obj 40 171 s \$0-note3-tog-r;
#X obj 99 251 s \$0-note3-vel-r;
#X obj 159 171 s \$0-note3-pitch-r;
#X obj 30 196 s \$0-note3-tog-s;
#X obj 149 196 s \$0-note3-pitch-s;
#X obj 89 276 s \$0-note3-vel-s;
#X connect 0 0 1 0;
#X connect 1 0 3 0;
#X connect 1 1 4 0;
#X connect 1 1 14 0;
#X connect 1 2 5 0;
#X connect 1 2 13 0;
#X connect 1 3 6 0;
#X connect 2 0 9 0;
#X connect 3 0 2 0;
#X connect 3 0 12 0;
#X connect 4 0 10 0;
#X connect 5 0 11 0;
#X connect 7 0 8 0;
#X connect 8 0 9 0;
#X connect 8 0 10 0;
#X connect 8 0 11 0;
#X restore 570 667 pd note3;
#N canvas 913 52 451 692 note4 0;
#X obj 30 66 inlet;
#X obj 30 91 route float gain transpose;
#X msg 40 146 set \$1;
#X obj 30 121 != 0;
#X msg 99 226 set \$1;
#X msg 159 146 set \$1;
#X obj 209 316 s \$0-error;
#X obj 236 91 loadbang;
#X msg 236 116 0;
#X obj 99 251 s \$0-note4-vel-r;
#X obj 159 171 s \$0-note4-pitch-r;
#X obj 40 171 s \$0-note4-tog-r;
#X obj 31 196 s \$0-note4-tog-s;
#X obj 149 196 s \$0-note4-pitch-s;
#X obj 89 276 s \$0-note4-vel-s;
#X connect 0 0 1 0;
#X connect 1 0 3 0;
#X connect 1 1 4 0;
#X connect 1 1 14 0;
#X connect 1 2 5 0;
#X connect 1 2 13 0;
#X connect 1 3 6 0;
#X connect 2 0 11 0;
#X connect 3 0 2 0;
#X connect 3 0 12 0;
#X connect 4 0 9 0;
#X connect 5 0 10 0;
#X connect 7 0 8 0;
#X connect 8 0 9 0;
#X connect 8 0 10 0;
#X connect 8 0 11 0;
#X restore 589 592 pd note4;
#N canvas 913 52 451 692 note5 0;
#X obj 30 66 inlet;
#X obj 30 91 route float gain transpose;
#X msg 40 146 set \$1;
#X obj 30 121 != 0;
#X msg 99 226 set \$1;
#X msg 159 146 set \$1;
#X obj 209 316 s \$0-error;
#X obj 236 91 loadbang;
#X msg 236 116 0;
#X obj 99 251 s \$0-note5-vel-r;
#X obj 159 171 s \$0-note5-pitch-r;
#X obj 40 171 s \$0-note5-tog-r;
#X obj 89 276 s \$0-note5-vel-s;
#X obj 30 196 s \$0-note5-tog-s;
#X obj 149 196 s \$0-note5-pitch-s;
#X connect 0 0 1 0;
#X connect 1 0 3 0;
#X connect 1 1 4 0;
#X connect 1 1 12 0;
#X connect 1 2 5 0;
#X connect 1 2 14 0;
#X connect 1 3 6 0;
#X connect 2 0 11 0;
#X connect 3 0 2 0;
#X connect 3 0 13 0;
#X connect 4 0 9 0;
#X connect 5 0 10 0;
#X connect 7 0 8 0;
#X connect 8 0 9 0;
#X connect 8 0 10 0;
#X connect 8 0 11 0;
#X restore 608 617 pd note5;
#X obj 591 475 s \$0-error;
#X obj 388 566 s \$0-out-r;
#N canvas 2 52 1362 692 state 0;
#X obj 23 30 inlet;
#X obj 23 55 t b b;
#X obj 21 260 s \$0-state;
#X msg 55 220 set;
#N canvas 685 52 679 692 grain 0;
#X obj 19 22 inlet;
#X obj 19 77 f;
#X obj 36 107 r \$0-rate-tog;
#X obj 54 132 r \$0-grain-duration;
#X obj 72 157 r \$0-grain-chance;
#X obj 90 182 r \$0-grain-dir;
#X obj 19 487 outlet;
#X obj 37 52 r \$0-grain-rate;
#X obj 108 207 r \$0-rate-sync;
#X obj 162 282 r \$0-length-sync;
#X obj 126 232 r \$0-rate-num;
#X obj 144 257 r \$0-rate-den;
#X obj 180 307 r \$0-length-num;
#X obj 198 332 r \$0-length-den;
#X obj 19 362 pack f f f f f f f f f f f;
#X msg 19 387 add2 rate \$1 \, addcomma \, add2 rate tog \$2 \, addcomma
\, add2 length \$3 \, addcomma \, add2 chance \$4 \, addcomma \, add2
dir \$5 \, addcomma \, add2 rate sync \$6 \, addcomma \, add2 rate
num \$7 \, addcomma \, add2 rate den \$8 \, addcomma \, add2 length
sync \$9 \, addcomma \, add2 length num \$10 \, addcomma \, add2 length
den \$11 \, addcomma;
#X connect 0 0 1 0;
#X connect 1 0 14 0;
#X connect 2 0 14 1;
#X connect 3 0 14 2;
#X connect 4 0 14 3;
#X connect 5 0 14 4;
#X connect 7 0 1 1;
#X connect 8 0 14 5;
#X connect 9 0 14 8;
#X connect 10 0 14 6;
#X connect 11 0 14 7;
#X connect 12 0 14 9;
#X connect 13 0 14 10;
#X connect 14 0 15 0;
#X connect 15 0 6 0;
#X restore 63 140 pd grain;
#X obj 23 85 t b b b b;
#N canvas 685 52 679 692 globals 0;
#X obj 14 12 inlet;
#X obj 14 67 f;
#X obj 14 307 outlet;
#X obj 32 42 r \$0-smear;
#X obj 79 147 r \$0-feedback;
#X obj 101 172 r \$0-drywet;
#X obj 14 227 pack f f f f f f;
#X obj 123 197 r \$0-out;
#X obj 35 97 r \$0-offset-pitch;
#X obj 57 122 r \$0-stereo-amount;
#X msg 14 252 add2 smear \$1 \, addcomma \, add2 detune \$2 \, addcomma
\, add2 stereo \$3 \, addcomma \, add2 feedback \$4 \, addcomma \,
add2 drywet \$5 \, addcomma \, add2 gain \$6 \, addcomma;
#X connect 0 0 1 0;
#X connect 1 0 6 0;
#X connect 3 0 1 1;
#X connect 4 0 6 3;
#X connect 5 0 6 4;
#X connect 6 0 10 0;
#X connect 7 0 6 5;
#X connect 8 0 6 1;
#X connect 9 0 6 2;
#X connect 10 0 2 0;
#X restore 83 115 pd globals;
#N canvas 913 52 451 692 window 0;
#X obj 19 22 inlet;
#X obj 19 77 f;
#X obj 19 177 outlet;
#X obj 19 112 pack f f;
#X obj 37 52 r \$0-window-sel;
#X obj 72 82 r \$0-smooth;
#X msg 19 137 add2 window shape \$1 \, addcomma \, add2 window smooth
\$2 \, addcomma;
#X connect 0 0 1 0;
#X connect 1 0 3 0;
#X connect 3 0 6 0;
#X connect 4 0 1 1;
#X connect 5 0 3 1;
#X connect 6 0 2 0;
#X restore 43 165 pd window;
#N canvas 913 52 451 692 notes 0;
#X obj 15 15 inlet;
#X obj 15 40 t b b b b b b;
#N canvas 1026 52 338 692 note0 0;
#X obj 14 12 inlet;
#X obj 14 67 f;
#X obj 14 217 outlet;
#X obj 14 137 pack f f f;
#X obj 32 42 r \$0-note0-tog;
#X obj 47 72 r \$0-note0-vel;
#X obj 81 97 r \$0-note0-pitch;
#X msg 14 162 add2 0 \$1 \, addcomma \, add2 0 gain \$2 \, addcomma
\, add2 0 transpose \$3 \, addcomma;
#X connect 0 0 1 0;
#X connect 1 0 3 0;
#X connect 3 0 7 0;
#X connect 4 0 1 1;
#X connect 5 0 3 1;
#X connect 6 0 3 2;
#X connect 7 0 2 0;
#X restore 103 70 pd note0;
#N canvas 1026 52 338 692 note1 0;
#X obj 14 12 inlet;
#X obj 14 67 f;
#X obj 14 217 outlet;
#X obj 14 137 pack f f f;
#X msg 14 162 add2 1 \$1 \, addcomma \, add2 1 gain \$2 \, addcomma
\, add2 1 transpose \$3 \, addcomma;
#X obj 47 72 r \$0-note1-vel;
#X obj 81 97 r \$0-note1-pitch;
#X obj 32 42 r \$0-note1-tog;
#X connect 0 0 1 0;
#X connect 1 0 3 0;
#X connect 3 0 4 0;
#X connect 4 0 2 0;
#X connect 5 0 3 1;
#X connect 6 0 3 2;
#X connect 7 0 1 1;
#X restore 85 95 pd note1;
#N canvas 1026 52 338 692 note3 0;
#X obj 14 12 inlet;
#X obj 14 67 f;
#X obj 14 217 outlet;
#X obj 14 137 pack f f f;
#X obj 32 42 r \$0-note3-tog;
#X obj 47 72 r \$0-note3-vel;
#X obj 81 97 r \$0-note3-pitch;
#X msg 14 162 add2 3 \$1 \, addcomma \, add2 3 gain \$2 \, addcomma
\, add2 3 transpose \$3 \, addcomma;
#X connect 0 0 1 0;
#X connect 1 0 3 0;
#X connect 3 0 7 0;
#X connect 4 0 1 1;
#X connect 5 0 3 1;
#X connect 6 0 3 2;
#X connect 7 0 2 0;
#X restore 50 145 pd note3;
#N canvas 1026 52 338 692 note2 0;
#X obj 14 12 inlet;
#X obj 14 67 f;
#X obj 14 217 outlet;
#X obj 14 137 pack f f f;
#X obj 32 42 r \$0-note2-tog;
#X obj 47 72 r \$0-note2-vel;
#X obj 81 97 r \$0-note2-pitch;
#X msg 14 162 add2 2 \$1 \, addcomma \, add2 2 gain \$2 \, addcomma
\, add2 2 transpose \$3 \, addcomma;
#X connect 0 0 1 0;
#X connect 1 0 3 0;
#X connect 3 0 7 0;
#X connect 4 0 1 1;
#X connect 5 0 3 1;
#X connect 6 0 3 2;
#X connect 7 0 2 0;
#X restore 67 120 pd note2;
#N canvas 1026 52 338 692 note4 0;
#X obj 14 12 inlet;
#X obj 14 67 f;
#X obj 14 217 outlet;
#X obj 14 137 pack f f f;
#X obj 32 42 r \$0-note4-tog;
#X obj 47 72 r \$0-note4-vel;
#X obj 81 97 r \$0-note4-pitch;
#X msg 14 162 add2 4 \$1 \, addcomma \, add2 4 gain \$2 \, addcomma
\, add2 4 transpose \$3 \, addcomma;
#X connect 0 0 1 0;
#X connect 1 0 3 0;
#X connect 3 0 7 0;
#X connect 4 0 1 1;
#X connect 5 0 3 1;
#X connect 6 0 3 2;
#X connect 7 0 2 0;
#X restore 32 70 pd note4;
#N canvas 1026 52 338 692 note5 0;
#X obj 14 12 inlet;
#X obj 14 67 f;
#X obj 14 217 outlet;
#X obj 14 137 pack f f f;
#X msg 14 162 add2 5 \$1 \, addcomma \, add2 5 gain \$2 \, addcomma
\, add2 5 transpose \$3 \, addcomma;
#X obj 81 97 r \$0-note5-pitch;
#X obj 47 72 r \$0-note5-vel;
#X obj 32 42 r \$0-note5-tog;
#X connect 0 0 1 0;
#X connect 1 0 3 0;
#X connect 3 0 4 0;
#X connect 4 0 2 0;
#X connect 5 0 3 2;
#X connect 6 0 3 1;
#X connect 7 0 1 1;
#X restore 15 95 pd note5;
#X obj 15 175 outlet;
#X connect 0 0 1 0;
#X connect 1 0 7 0;
#X connect 1 1 6 0;
#X connect 1 2 4 0;
#X connect 1 3 5 0;
#X connect 1 4 3 0;
#X connect 1 5 2 0;
#X connect 2 0 8 0;
#X connect 3 0 8 0;
#X connect 4 0 8 0;
#X connect 5 0 8 0;
#X connect 6 0 8 0;
#X connect 7 0 8 0;
#X restore 23 190 pd notes;
#X connect 0 0 1 0;
#X connect 1 0 5 0;
#X connect 1 1 3 0;
#X connect 3 0 2 0;
#X connect 4 0 2 0;
#X connect 5 0 8 0;
#X connect 5 1 7 0;
#X connect 5 2 4 0;
#X connect 5 3 6 0;
#X connect 6 0 2 0;
#X connect 7 0 2 0;
#X connect 8 0 2 0;
#X restore 547 524 pd state;
#X obj 356 51 r \$0-error;
#X msg 356 76 se recibió un mensaje desconocido;
#X obj 356 101 print roads~;
#X obj 512 562 route 0 1 2 3 4 5;
#X obj 265 271 route smear detune stereo feedback drywet state;
#N canvas 913 52 451 692 grain 0;
#X obj 12 12 inlet;
#X msg 222 42 100;
#X obj 222 12 loadbang;
#X obj 22 97 s \$0-grain-rate-r;
#X msg 22 72 set \$1;
#X msg 60 177 set \$1;
#X obj 50 152 != 0;
#X obj 60 202 s \$0-rate-tog-r;
#X msg 247 42 1;
#X obj 12 42 route float tog sync num den;
#X msg 99 282 set \$1;
#X obj 89 257 != 0;
#X obj 99 307 s \$0-rate-sync-r;
#X msg 137 362 set \$1;
#X obj 137 387 s \$0-rate-num-r;
#X msg 176 72 set \$1;
#X obj 176 97 s \$0-rate-den-r;
#X msg 272 42 0;
#X obj 205 472 s \$0-error;
#X obj 12 122 s \$0-grain-rate-s;
#X obj 50 227 s \$0-rate-tog-s;
#X obj 89 332 s \$0-rate-sync-s;
#X obj 127 412 s \$0-rate-num-s;
#X obj 166 122 s \$0-rate-den-s;
#X connect 0 0 9 0;
#X connect 1 0 3 0;
#X connect 2 0 1 0;
#X connect 2 0 8 0;
#X connect 2 0 17 0;
#X connect 4 0 3 0;
#X connect 5 0 7 0;
#X connect 6 0 5 0;
#X connect 6 0 20 0;
#X connect 8 0 7 0;
#X connect 8 0 16 0;
#X connect 8 0 14 0;
#X connect 9 0 4 0;
#X connect 9 0 19 0;
#X connect 9 1 6 0;
#X connect 9 2 11 0;
#X connect 9 3 13 0;
#X connect 9 3 22 0;
#X connect 9 4 15 0;
#X connect 9 4 23 0;
#X connect 9 5 18 0;
#X connect 10 0 12 0;
#X connect 11 0 10 0;
#X connect 11 0 21 0;
#X connect 13 0 14 0;
#X connect 15 0 16 0;
#X connect 17 0 12 0;
#X restore 24 190 pd grain;
#N canvas 913 52 451 692 length 0;
#X obj 12 12 inlet;
#X obj 222 12 loadbang;
#X msg 22 72 set \$1;
#X msg 63 177 set \$1;
#X obj 53 152 != 0;
#X msg 104 257 set \$1;
#X msg 145 337 set \$1;
#X obj 177 447 s \$0-error;
#X msg 222 42 300;
#X obj 22 97 s \$0-grain-duration-r;
#X obj 12 42 route float sync num den;
#X msg 247 42 0;
#X msg 272 42 1;
#X obj 63 202 s \$0-length-sync-r;
#X obj 104 282 s \$0-length-num-r;
#X obj 145 362 s \$0-length-den-r;
#X obj 12 122 s \$0-grain-duration-s;
#X obj 53 227 s \$0-length-sync-s;
#X obj 94 307 s \$0-length-num-s;
#X obj 135 387 s \$0-length-den-s;
#X connect 0 0 10 0;
#X connect 1 0 8 0;
#X connect 2 0 9 0;
#X connect 3 0 13 0;
#X connect 4 0 3 0;
#X connect 4 0 17 0;
#X connect 5 0 14 0;
#X connect 6 0 15 0;
#X connect 8 0 9 0;
#X connect 10 0 2 0;
#X connect 10 0 16 0;
#X connect 10 1 4 0;
#X connect 10 2 5 0;
#X connect 10 2 18 0;
#X connect 10 3 6 0;
#X connect 10 3 19 0;
#X connect 10 4 7 0;
#X connect 11 0 13 0;
#X connect 12 0 14 0;
#X connect 12 0 15 0;
#X restore 72 220 pd length;
#X obj 782 13 loadbang;
#X obj 782 178 s \$0-note0-tog;
#X obj 802 268 s \$0-note1-tog;
#X obj 832 358 s \$0-note2-tog;
#X obj 862 448 s \$0-note3-tog;
#X obj 892 539 s \$0-note4-tog;
#X obj 922 628 s \$0-note5-tog;
#X obj 120 400 s \$0-grain-chance-s;
#X obj 168 240 s \$0-grain-dir-s;
#X obj 265 351 s \$0-smear-s;
#X obj 319 431 s \$0-offset-pitch-s;
#X obj 482 431 s \$0-drywet-s;
#X obj 373 351 s \$0-stereo-amount-s;
#X obj 245 591 s \$0-window-sel-s;
#X obj 306 696 s \$0-smooth-s;
#X obj 378 591 s \$0-out-s;
#X obj 428 511 s \$0-feedback-s;
#X connect 3 0 8 0;
#X connect 4 0 3 0;
#X connect 4 0 7 0;
#X connect 4 0 11 0;
#X connect 7 0 5 0;
#X connect 11 0 10 0;
#X connect 11 0 9 0;
#X connect 12 0 13 0;
#X connect 13 0 34 0;
#X connect 13 0 33 0;
#X connect 14 0 15 0;
#X connect 14 0 18 0;
#X connect 14 0 19 0;
#X connect 14 0 20 0;
#X connect 14 0 22 0;
#X connect 14 0 21 0;
#X connect 15 0 77 0;
#X connect 16 0 17 0;
#X connect 17 0 15 1;
#X connect 18 0 78 0;
#X connect 19 0 79 0;
#X connect 20 0 80 0;
#X connect 21 0 81 0;
#X connect 22 0 82 0;
#X connect 23 0 15 1;
#X connect 24 0 18 1;
#X connect 25 0 20 1;
#X connect 26 0 21 1;
#X connect 27 0 22 1;
#X connect 28 0 19 1;
#X connect 29 0 31 0;
#X connect 29 0 41 0;
#X connect 29 1 30 0;
#X connect 30 0 38 0;
#X connect 30 0 43 0;
#X connect 30 0 45 0;
#X connect 30 0 47 0;
#X connect 30 0 49 0;
#X connect 30 0 57 0;
#X connect 30 0 67 0;
#X connect 31 0 40 0;
#X connect 31 0 51 0;
#X connect 32 0 29 0;
#X connect 35 0 36 0;
#X connect 36 0 74 0;
#X connect 36 1 75 0;
#X connect 36 2 39 0;
#X connect 36 2 83 0;
#X connect 36 3 37 0;
#X connect 36 3 84 0;
#X connect 36 4 73 0;
#X connect 37 0 38 0;
#X connect 39 0 40 0;
#X connect 41 0 54 0;
#X connect 42 0 43 0;
#X connect 44 0 45 0;
#X connect 46 0 47 0;
#X connect 48 0 49 0;
#X connect 50 0 51 0;
#X connect 52 0 53 0;
#X connect 52 0 89 0;
#X connect 52 1 56 0;
#X connect 52 2 66 0;
#X connect 53 0 54 0;
#X connect 55 0 57 0;
#X connect 56 0 55 0;
#X connect 56 0 90 0;
#X connect 60 0 52 0;
#X connect 60 1 61 0;
#X connect 60 1 91 0;
#X connect 60 2 72 0;
#X connect 61 0 67 0;
#X connect 69 0 70 0;
#X connect 70 0 71 0;
#X connect 72 0 58 0;
#X connect 72 1 59 0;
#X connect 72 2 62 0;
#X connect 72 3 63 0;
#X connect 72 4 64 0;
#X connect 72 5 65 0;
#X connect 72 6 66 0;
#X connect 73 0 42 0;
#X connect 73 0 85 0;
#X connect 73 1 44 0;
#X connect 73 1 86 0;
#X connect 73 2 46 0;
#X connect 73 2 88 0;
#X connect 73 3 48 0;
#X connect 73 3 92 0;
#X connect 73 4 50 0;
#X connect 73 4 87 0;
#X connect 73 5 68 0;
#X connect 73 6 60 0;
#X connect 76 0 14 0;
#X restore 300 59 pd route-inlet-messages;
#N canvas 685 52 679 692 sample 0;
#X obj 267 331 t b f;
#X obj 267 360 s \$0-reload;
#X obj 774 113 r \$0-sample-note;
#X obj 12 12 table \$0-sampleL;
#X obj 12 42 table \$0-sampleR;
#X obj 309 399 s \$0-sample-duration;
#X obj 490 182 s \$0-sample-rate;
#X obj 774 138 list prepend pass sample note;
#X obj 299 428 list prepend pass sample duration;
#X obj 480 212 list prepend pass sample rate;
#X obj 480 241 s \$0-params;
#X obj 299 457 s \$0-params;
#X obj 774 163 s \$0-params;
#X obj 770 375 s \$0-sample-chan;
#X obj 760 405 list prepend pass sample chan;
#X obj 760 430 s \$0-params;
#X obj 365 52 r \$0-rec;
#X obj 480 153 samplerate~;
#X obj 388 139 timer;
#X obj 365 110 sel 0 1;
#X msg 760 345 2;
#X obj 373 197 * 0.001;
#X obj 355 226 *;
#X msg 355 255 resize \$1;
#X obj 355 284 s \$0-sampleL;
#X obj 365 313 s \$0-sampleR;
#X obj 355 168 r \$0-size;
#X obj 365 81 change;
#X obj 760 292 loadbang;
#X obj 760 316 delay 200;
#X obj 480 129 loadbang;
#X obj 561 45 r pd;
#X obj 561 70 route dsp;
#X obj 561 95 sel 1;
#X connect 0 0 1 0;
#X connect 0 1 5 0;
#X connect 0 1 8 0;
#X connect 2 0 7 0;
#X connect 7 0 12 0;
#X connect 8 0 11 0;
#X connect 9 0 10 0;
#X connect 14 0 15 0;
#X connect 16 0 27 0;
#X connect 17 0 21 0;
#X connect 17 0 6 0;
#X connect 17 0 9 0;
#X connect 18 0 22 0;
#X connect 19 0 18 1;
#X connect 19 1 18 0;
#X connect 20 0 13 0;
#X connect 20 0 14 0;
#X connect 21 0 22 1;
#X connect 22 0 23 0;
#X connect 22 0 0 0;
#X connect 23 0 24 0;
#X connect 23 0 25 0;
#X connect 26 0 22 0;
#X connect 27 0 19 0;
#X connect 28 0 29 0;
#X connect 29 0 20 0;
#X connect 30 0 17 0;
#X connect 31 0 32 0;
#X connect 32 0 33 0;
#X connect 33 0 17 0;
#X restore 12 560 pd sample;
#X msg 310 159 all bang;
#N canvas 685 35 336 613 params 0;
#X obj 165 135 r \$0-params;
#X obj 165 251 outlet;
#X obj 276 87 loadbang;
#X obj 276 111 f \$0;
#X obj 276 135 list prepend pass id;
#X text 468 40 las instancias de grano de cada voz necesitan acceso
al sample \, a la ventana y a la segunda ventana de suavizado \, todas
estas tablas utilizan la variable \$0 (número único que sirve para
identificar este parche) en su nombre para evitar conflictos y poder
\, por ejemplo \, correr dos instancias del sintetizador sin problemas
\; esto trae otro problema ya que los granos son instancias generadas
por un objeto [clone] cada una con su valor único de la variable \$0
\, por lo que es necesario enviar el valor desde aquí a través de
todas las instancias de voces para así llegar a todas las instancias
de grano dentro de ellas \, donde se construyen dinámicamente los
nombres de las tablas y asi los granos pueden leer de ellas;
#X connect 0 0 1 0;
#X connect 2 0 3 0;
#X connect 3 0 4 0;
#X connect 4 0 1 0;
#X restore 212 119 pd params;
#N canvas 104 104 450 300 targetall 0;
#X obj 12 185 outlet;
#X obj 12 156 list trim;
#X obj 12 132 list prepend all;
#X obj 12 103 inlet;
#X connect 1 0 0 0;
#X connect 2 0 1 0;
#X connect 3 0 2 0;
#X restore 212 149 pd targetall;
#X obj 12 189 clone ./roads-voice~ 6, f 29;
#N canvas 685 52 679 692 rec 0;
#X obj 30 49 inlet~;
#X obj 86 49 inlet~;
#X obj 152 49 inlet;
#X obj 30 389 tabwrite~ \$0-sampleL;
#X obj 86 414 tabwrite~ \$0-sampleR;
#X obj 152 309 sel 0 1, f 10;
#X msg 152 339 stop;
#X msg 185 339 start;
#X obj 152 79 != 0;
#X msg 162 104 set \$1;
#X obj 162 129 s \$0-rec-r;
#X obj 152 154 s \$0-rec;
#X obj 152 249 r \$0-rec;
#X obj 338 314 r \$0-size;
#X obj 306 344 delay;
#X obj 152 279 change;
#X msg 306 369 0;
#X connect 0 0 3 0;
#X connect 1 0 4 0;
#X connect 2 0 8 0;
#X connect 5 0 6 0;
#X connect 5 1 7 0;
#X connect 5 1 14 0;
#X connect 6 0 4 0;
#X connect 6 0 3 0;
#X connect 7 0 4 0;
#X connect 7 0 3 0;
#X connect 8 0 9 0;
#X connect 8 0 11 0;
#X connect 9 0 10 0;
#X connect 12 0 15 0;
#X connect 13 0 14 1;
#X connect 14 0 16 0;
#X connect 15 0 5 0;
#X connect 16 0 8 0;
#X restore 174 69 pd rec;
#X f 16;
#X obj 525 112 s \$0-size;
#X obj 12 129 r \$0-note;
#X obj 368 347 r \$0-smear;
#X obj 368 397 * -1;
#X obj 525 22 loadbang;
#X msg 816 207 0;
#X msg 731 47 1;
#X obj 368 602 s \$0-offset-playhead;
#X obj 424 447 delay;
#X msg 848 117 0;
#X msg 885 147 1;
#X obj 378 552 line;
#X msg 378 527 0 \, 1 \$1;
#X obj 378 577 *;
#X obj 378 502 f;
#X obj 396 477 * -1;
#X obj 368 372 + 10;
#X obj 368 422 * 0.009;
#X obj 602 52 delay 500;
#X obj 368 447 * 2000;
#X obj 525 62 delay 100;
#X obj 816 237 s \$0-playhead;
#X obj 731 72 s \$0-rec;
#X obj 848 177 s \$0-play;
#N canvas 1026 52 338 692 camomile 0;
#X obj 10 11 ./param.set 1 \$0-note0-tog;
#X obj 10 59 ./param.set 2 \$0-note0-vel;
#X obj 10 107 ./param.set 3 \$0-note0-pitch;
#X obj 10 171 ./param.set 4 \$0-note1-tog;
#X obj 10 219 ./param.set 5 \$0-note1-vel;
#X obj 10 267 ./param.set 6 \$0-note1-pitch;
#X obj 10 427 ./param.set 9 \$0-note2-pitch;
#X obj 10 379 ./param.set 8 \$0-note2-vel;
#X obj 10 331 ./param.set 7 \$0-note2-tog;
#X obj 10 491 ./param.set 10 \$0-note3-tog;
#X obj 10 539 ./param.set 11 \$0-note3-vel;
#X obj 10 587 ./param.set 12 \$0-note3-pitch;
#X obj 255 267 ./param.set 18 \$0-note5-pitch;
#X obj 255 219 ./param.set 17 \$0-note5-vel;
#X obj 255 171 ./param.set 16 \$0-note5-tog;
#X obj 255 107 ./param.set 15 \$0-note4-pitch;
#X obj 255 59 ./param.set 14 \$0-note4-vel;
#X obj 255 11 ./param.set 13 \$0-note4-tog;
#X obj 255 331 ./param.set 19 \$0-rate-sync;
#X obj 255 379 ./param.set 20 \$0-grain-rate;
#X obj 513 266 ./param.set 31 \$0-smear;
#X obj 513 314 ./param.set 32 \$0-offset-pitch;
#X obj 513 362 ./param.set 33 \$0-stereo-amount;
#X obj 513 410 ./param.set 34 \$0-feedback;
#X obj 513 522 ./param.set 36 \$0-window-sel;
#X obj 513 570 ./param.set 37 \$0-smooth;
#X obj 513 11 ./param.set 26 \$0-length-sync;
#X obj 513 59 ./param.set 27 \$0-grain-duration;
#X obj 513 203 ./param.set 30 \$0-grain-dir;
#X obj 513 107 ./param.set 28 \$0-length-num;
#X obj 513 155 ./param.set 29 \$0-length-den;
#X obj 255 427 ./param.set 21 \$0-rate-num;
#X obj 255 523 ./param.set 23 \$0-rate-tog;
#X obj 255 571 ./param.set 24 \$0-grain-chance;
#X msg 1117 245 gui redraw;
#X obj 1117 269 s camomile;
#X msg 1117 192 bang;
#X obj 1117 216 delay 5;
#X obj 1137 105 r \$0-rate-sync;
#X obj 1127 134 r \$0-length-sync;
#X obj 1147 76 r \$0-grain-dir;
#X obj 1117 163 r \$0-window-sel;
#X obj 513 338 ./param.get 32 \$0-offset-pitch;
#X obj 513 179 ./param.get 29 \$0-length-den;
#X obj 513 131 ./param.get 28 \$0-length-num;
#X obj 513 83 ./param.get 27 \$0-grain-duration;
#X obj 255 131 ./param.get 15 \$0-note4-pitch;
#X obj 255 291 ./param.get 18 \$0-note5-pitch;
#X obj 255 403 ./param.get 20 \$0-grain-rate;
#X obj 255 451 ./param.get 21 \$0-rate-num;
#X obj 10 610 ./param.get 12 \$0-note3-pitch;
#X obj 10 451 ./param.get 9 \$0-note2-pitch;
#X obj 10 291 ./param.get 6 \$0-note1-pitch;
#X obj 10 131 ./param.get 3 \$0-note0-pitch;
#X obj 513 458 ./param.set 35 \$0-drywet;
#X obj 513 618 ./param.set 38 \$0-out;
#X obj 513 642 ./param.get 38 \$0-out;
#X obj 10 195 ./param.get.tog 4 \$0-note1-tog;
#X obj 10 355 ./param.get.tog 7 \$0-note2-tog;
#X obj 10 515 ./param.get.tog 10 \$0-note3-tog;
#X obj 255 35 ./param.get.tog 13 \$0-note4-tog;
#X obj 255 195 ./param.get.tog 16 \$0-note5-tog;
#X obj 255 355 ./param.get.tog 19 \$0-rate-sync;
#X obj 255 547 ./param.get.tog 23 \$0-rate-tog;
#X obj 513 34 ./param.get.tog 26 \$0-length-sync;
#X obj 513 594 ./param.get.tog 37 \$0-smooth;
#X obj 513 227 ./param.get.int 30 \$0-grain-dir;
#X obj 513 386 ./param.get.int 33 \$0-stereo-amount;
#X obj 513 434 ./param.get.int 34 \$0-feedback;
#X obj 513 482 ./param.get.int 35 \$0-drywet;
#X obj 513 546 ./param.get.int 36 \$0-window-sel;
#X obj 513 290 ./param.get.int 31 \$0-smear;
#X obj 255 595 ./param.get.int 24 \$0-grain-chance;
#X obj 255 243 ./param.get.int 17 \$0-note5-vel;
#X obj 255 83 ./param.get.int 14 \$0-note4-vel;
#X obj 10 563 ./param.get.int 11 \$0-note3-vel;
#X obj 10 403 ./param.get.int 8 \$0-note2-vel;
#X obj 10 243 ./param.get.int 5 \$0-note1-vel;
#X obj 10 83 ./param.get.int 2 \$0-note0-vel;
#X obj 10 35 ./param.get 1 \$0-note0-tog;
#X obj 255 499 ./param.get 22 \$0-rate-den;
#X obj 255 475 ./param.set 22 \$0-rate-den;
#X obj 960 107 r \$0-preset-prev;
#X obj 970 132 r \$0-preset-next;
#X obj 255 643 ./param.get.tog 25 \$0-trigger-bng;
#X connect 34 0 35 0;
#X connect 36 0 37 0;
#X connect 37 0 34 0;
#X connect 38 0 36 0;
#X connect 39 0 36 0;
#X connect 40 0 36 0;
#X connect 41 0 36 0;
#X connect 82 0 36 0;
#X connect 83 0 36 0;
#X restore 1136 568 pd camomile;
#X obj 372 295 *~;
#X obj 12 218 hip~ 10;
#X obj 12 242 lop~ 18000;
#X obj 407 295 *~;
#X obj 212 218 hip~ 10;
#X obj 212 242 lop~ 18000;
#X obj 390 194 r \$0-feedback;
#X obj 390 266 line~;
#X msg 390 242 \$1 10;
#X obj 390 218 * 0.0025;
#X obj 513 368 r \$0-grain-chance;
#X obj 513 393 t b f;
#X msg 513 418 100;
#X obj 513 443 -, f 5;
#X obj 513 468 s \$0-offset-duration-chance;
#N canvas -101 50 1366 685 notes 0;
#X obj 14 161 pack f f;
#X obj 14 18 r \$0-note0-pitch;
#X obj 35 42 r \$0-note0-tog;
#X msg 14 185 0 \$1 \$2;
#X obj 45 65 r \$0-note0-vel;
#X obj 35 113 *;
#X obj 45 89 t b f;
#X obj 14 209 s \$0-note;
#X obj 35 137 t b f;
#X obj 164 161 pack f f;
#X obj 185 113 *;
#X obj 195 89 t b f;
#X obj 164 209 s \$0-note;
#X obj 185 137 t b f;
#X obj 314 161 pack f f;
#X obj 335 113 *;
#X obj 345 89 t b f;
#X obj 314 209 s \$0-note;
#X obj 335 137 t b f;
#X obj 464 161 pack f f;
#X obj 485 113 *;
#X obj 495 89 t b f;
#X obj 464 209 s \$0-note;
#X obj 485 137 t b f;
#X obj 614 161 pack f f;
#X obj 635 113 *;
#X obj 645 89 t b f;
#X obj 614 209 s \$0-note;
#X obj 635 137 t b f;
#X obj 764 161 pack f f;
#X obj 785 113 *;
#X obj 795 89 t b f;
#X obj 764 209 s \$0-note;
#X obj 785 137 t b f;
#X obj 164 18 r \$0-note1-pitch;
#X obj 185 42 r \$0-note1-tog;
#X obj 195 65 r \$0-note1-vel;
#X msg 164 185 1 \$1 \$2;
#X msg 314 185 2 \$1 \$2;
#X msg 464 185 3 \$1 \$2;
#X msg 614 185 4 \$1 \$2;
#X msg 764 185 5 \$1 \$2;
#X obj 795 65 r \$0-note5-vel;
#X obj 785 42 r \$0-note5-tog;
#X obj 764 18 r \$0-note5-pitch;
#X obj 614 18 r \$0-note4-pitch;
#X obj 635 42 r \$0-note4-tog;
#X obj 645 65 r \$0-note4-vel;
#X obj 464 18 r \$0-note3-pitch;
#X obj 485 42 r \$0-note3-tog;
#X obj 495 65 r \$0-note3-vel;
#X obj 345 65 r \$0-note2-vel;
#X obj 335 42 r \$0-note2-tog;
#X obj 314 18 r \$0-note2-pitch;
#X connect 0 0 3 0;
#X connect 1 0 0 0;
#X connect 2 0 5 0;
#X connect 3 0 7 0;
#X connect 4 0 6 0;
#X connect 5 0 8 0;
#X connect 6 0 5 0;
#X connect 6 1 5 1;
#X connect 8 0 0 0;
#X connect 8 1 0 1;
#X connect 9 0 37 0;
#X connect 10 0 13 0;
#X connect 11 0 10 0;
#X connect 11 1 10 1;
#X connect 13 0 9 0;
#X connect 13 1 9 1;
#X connect 14 0 38 0;
#X connect 15 0 18 0;
#X connect 16 0 15 0;
#X connect 16 1 15 1;
#X connect 18 0 14 0;
#X connect 18 1 14 1;
#X connect 19 0 39 0;
#X connect 20 0 23 0;
#X connect 21 0 20 0;
#X connect 21 1 20 1;
#X connect 23 0 19 0;
#X connect 23 1 19 1;
#X connect 24 0 40 0;
#X connect 25 0 28 0;
#X connect 26 0 25 0;
#X connect 26 1 25 1;
#X connect 28 0 24 0;
#X connect 28 1 24 1;
#X connect 29 0 41 0;
#X connect 30 0 33 0;
#X connect 31 0 30 0;
#X connect 31 1 30 1;
#X connect 33 0 29 0;
#X connect 33 1 29 1;
#X connect 34 0 9 0;
#X connect 35 0 10 0;
#X connect 36 0 11 0;
#X connect 37 0 12 0;
#X connect 38 0 17 0;
#X connect 39 0 22 0;
#X connect 40 0 27 0;
#X connect 41 0 32 0;
#X connect 42 0 31 0;
#X connect 43 0 30 0;
#X connect 44 0 29 0;
#X connect 45 0 24 0;
#X connect 46 0 25 0;
#X connect 47 0 26 0;
#X connect 48 0 19 0;
#X connect 49 0 20 0;
#X connect 50 0 21 0;
#X connect 51 0 16 0;
#X connect 52 0 15 0;
#X connect 53 0 14 0;
#X restore 1146 510 pd notes;
#X obj 710 305 == 0;
#X obj 710 385 s \$0-grain-auto;
#X obj 710 280 r \$0-rate-sync;
#N canvas 685 52 679 692 sync-move-gui 0;
#X obj 156 17 r \$0-rate-sync;
#X obj 156 41 sel 0 1;
#X msg 199 70 977 210;
#X msg 156 99 pos \$1 \$2;
#X obj 340 181 s \$0-grain-rate-label;
#X msg 340 152 pos \$1 \$2;
#X msg 399 122 1016 215;
#X msg 66 121 977 210;
#X msg 23 150 pos \$1 \$2;
#X msg 184 152 pos \$1 \$2;
#X msg 260 152 1001 210;
#X obj 684 43 sel 0 1;
#X msg 684 101 pos \$1 \$2;
#X msg 868 154 pos \$1 \$2;
#X msg 551 152 pos \$1 \$2;
#X msg 712 154 pos \$1 \$2;
#X obj 684 19 r \$0-length-sync;
#X obj 868 183 s \$0-grain-duration-label;
#X obj 712 183 s \$0-length-den-r;
#X msg 594 123 1037 210;
#X msg 907 124 1076 215;
#X msg 788 154 1061 210;
#X obj 684 130 s \$0-length-num-r;
#X msg 727 72 1037 210;
#X obj 23 179 s \$0-grain-rate-r;
#X obj 551 181 s \$0-grain-duration-r;
#X obj 184 181 s \$0-rate-den-r;
#X obj 156 128 s \$0-rate-num-r;
#X msg 23 121 977 20;
#X msg 156 70 977 20;
#X msg 340 122 1016 20;
#X msg 551 123 1037 20;
#X msg 684 72 1037 20;
#X msg 868 124 1076 20;
#X connect 0 0 1 0;
#X connect 1 0 29 0;
#X connect 1 0 6 0;
#X connect 1 0 7 0;
#X connect 1 1 2 0;
#X connect 1 1 30 0;
#X connect 1 1 28 0;
#X connect 1 1 10 0;
#X connect 2 0 3 0;
#X connect 3 0 27 0;
#X connect 5 0 4 0;
#X connect 6 0 5 0;
#X connect 7 0 8 0;
#X connect 8 0 24 0;
#X connect 9 0 26 0;
#X connect 10 0 9 0;
#X connect 11 0 32 0;
#X connect 11 0 20 0;
#X connect 11 0 19 0;
#X connect 11 1 23 0;
#X connect 11 1 33 0;
#X connect 11 1 31 0;
#X connect 11 1 21 0;
#X connect 12 0 22 0;
#X connect 13 0 17 0;
#X connect 14 0 25 0;
#X connect 15 0 18 0;
#X connect 16 0 11 0;
#X connect 19 0 14 0;
#X connect 20 0 13 0;
#X connect 21 0 15 0;
#X connect 23 0 12 0;
#X connect 28 0 8 0;
#X connect 29 0 3 0;
#X connect 29 0 9 0;
#X connect 30 0 5 0;
#X connect 31 0 14 0;
#X connect 32 0 12 0;
#X connect 32 0 15 0;
#X connect 33 0 13 0;
#X restore 1119 539 pd sync-move-gui;
#X obj 614 508 r \$0-smooth;
#X obj 624 538 s \$0-fade-out;
#X obj 614 563 s \$0-fade-in;
#X obj 310 130 r \$0-trigger;
#X obj 605 280 r \$0-rate-tog;
#X obj 710 335 *;
#X obj 605 305 t b f;
#X obj 710 360 change;
#X obj 816 47 delay 5000;
#X msg 525 87 5000;
#X obj 885 117 delay 2;
#X obj 816 77 t b b;
#X obj 816 17 delay 5001;
#X obj 255 360 r \$0-drywet;
#X obj 255 385 * 0.01;
#X obj 255 410 t b f;
#X msg 255 435 1;
#X obj 255 460 -, f 5;
#X msg 136 417 \$1 10;
#X obj 136 441 line~;
#X obj 12 271 *~;
#X obj 212 271 *~;
#X obj 100 221 *~;
#X obj 130 221 *~;
#X msg 255 485 \$1 10;
#X obj 255 510 line~;
#N canvas 130 130 1366 685 rate-sync 0;
#X obj 42 104 r playhead;
#X obj 42 128 route position;
#X obj 42 200 t f f;
#X obj 74 224 wrap;
#X obj 42 248 -, f 5;
#X obj 42 176 *;
#X obj 42 272 change;
#X obj 162 61 t b f;
#X msg 162 85 1;
#X obj 162 109 /, f 5;
#X obj 162 133 t b f;
#X obj 152 157 *;
#X msg 42 152 \$1;
#X obj 42 296 spigot;
#X obj 152 13 r \$0-rate-den;
#X obj 162 37 r \$0-rate-num;
#X obj 98 277 r \$0-rate-sync;
#X obj 42 320 outlet;
#X connect 0 0 1 0;
#X connect 1 0 12 0;
#X connect 2 0 4 0;
#X connect 2 1 3 0;
#X connect 3 0 4 1;
#X connect 4 0 6 0;
#X connect 5 0 2 0;
#X connect 6 0 13 0;
#X connect 7 0 8 0;
#X connect 7 1 9 1;
#X connect 8 0 9 0;
#X connect 9 0 10 0;
#X connect 10 0 11 0;
#X connect 10 1 11 1;
#X connect 11 0 5 1;
#X connect 12 0 5 0;
#X connect 13 0 17 0;
#X connect 14 0 11 0;
#X connect 15 0 7 0;
#X connect 16 0 13 1;
#X restore 359 92 pd rate-sync;
#N canvas 685 52 679 692 length-sync 0;
#X obj 37 45 route bpm;
#X obj 37 69 t b f;
#X msg 37 93 60000;
#X obj 37 117 /;
#X obj 37 21 r playhead;
#X obj 47 146 r \$0-length-num;
#X obj 37 281 *;
#X obj 47 252 t b f;
#X obj 47 223 /;
#X obj 57 170 r \$0-length-den;
#X obj 57 194 t b f;
#X obj 37 310 change;
#X obj 37 339 spigot;
#X obj 93 320 r \$0-length-sync;
#X obj 37 368 s \$0-grain-duration-r;
#X connect 0 0 1 0;
#X connect 1 0 2 0;
#X connect 1 1 3 1;
#X connect 2 0 3 0;
#X connect 3 0 6 0;
#X connect 4 0 0 0;
#X connect 5 0 8 0;
#X connect 6 0 11 0;
#X connect 7 0 6 0;
#X connect 7 1 6 1;
#X connect 8 0 7 0;
#X connect 9 0 10 0;
#X connect 10 0 8 0;
#X connect 10 1 8 1;
#X connect 11 0 12 0;
#X connect 12 0 14 0;
#X connect 13 0 12 1;
#X restore 1172 105 pd length-sync;
#X msg 731 17 bang;
#X obj 285 305 r \$0-state;
#X obj 285 330 outlet;
#X obj 300 29 inlet;
#X obj 942 176 cnv 15 168 316 empty empty empty 20 12 0 14 -33289 -66577
0;
#X obj 948 182 cnv 15 156 304 empty empty empty 20 12 0 14 -253816
-66577 0;
#X obj 953 262 cnv 2 146 2 empty \$0-bar empty 20 12 0 14 -33289 -1
0;
#X obj 953 311 nbx 3 15 0 100 0 0 \$0-stereo-amount-s \$0-stereo-amount-r
stereo 0 -8 0 10 -33289 -253816 -33289 0 256;
#X obj 1047 438 nbx 3 15 -100 12 0 0 \$0-out-s \$0-out-r gain 0 -8
0 10 -33289 -253816 -33289 0 256;
#X obj 953 281 nbx 3 15 0 100 0 0 \$0-smear-s \$0-smear-r smear 0 -8
0 10 -33289 -253816 -33289 0 256;
#X obj 1087 443 cnv 13 10 6 empty \$0-text dB 1 2 0 10 -253816 -33289
0;
#X obj 1010 311 nbx 3 15 0 100 0 0 \$0-feedback-s \$0-feedback-r feedback
0 -8 0 10 -33289 -253816 -33289 0 256;
#X obj 953 242 nbx 3 15 0 100 0 0 \$0-grain-chance-s \$0-grain-chance-r
chance 0 -8 0 10 -33289 -253816 -33289 100 256;
#X obj 994 247 cnv 13 10 6 empty \$0-text % 1 2 0 10 -253816 -33289
0;
#X obj 977 185 tgl 10 0 \$0-rate-sync-s \$0-rate-sync-r sync 15 4 0
10 -253816 -33289 -33289 0 1;
#X obj 953 445 nbx 3 14 -36 36 0 0 \$0-note4-pitch-s \$0-note4-pitch-r
empty 0 -8 0 10 -33289 -253816 -33289 0 256;
#X obj 953 430 tgl 10 0 \$0-note4-tog-s \$0-note4-tog-r empty 15 4
0 10 -253816 -33289 -33289 0 1;
#X obj 971 430 hsl 16 10 0 100 0 0 \$0-note4-vel-s \$0-note4-vel-r
empty -2 -8 0 10 -33289 -253816 -33289 0 1;
#X obj 999 445 nbx 3 14 -36 36 0 0 \$0-note5-pitch-s \$0-note5-pitch-r
empty 0 -8 0 10 -33289 -253816 -33289 0 256;
#X obj 999 430 tgl 10 0 \$0-note5-tog-s \$0-note5-tog-r empty 15 4
0 10 -253816 -33289 -33289 0 1;
#X obj 1017 430 hsl 16 10 0 100 0 0 \$0-note5-vel-s \$0-note5-vel-r
empty -2 -8 0 10 -33289 -253816 -33289 0 1;
#X obj 953 406 nbx 3 14 -36 36 0 0 \$0-note2-pitch-s \$0-note2-pitch-r
empty 0 -8 0 10 -33289 -253816 -33289 0 256;
#X obj 953 391 tgl 10 0 \$0-note2-tog-s \$0-note2-tog-r empty 15 4
0 10 -253816 -33289 -33289 0 1;
#X obj 971 391 hsl 16 10 0 100 0 0 \$0-note2-vel-s \$0-note2-vel-r
empty -2 -8 0 10 -33289 -253816 -33289 0 1;
#X obj 999 406 nbx 3 14 -36 36 0 0 \$0-note3-pitch-s \$0-note3-pitch-r
empty 0 -8 0 10 -33289 -253816 -33289 0 256;
#X obj 999 391 tgl 10 0 \$0-note3-tog-s \$0-note3-tog-r empty 15 4
0 10 -253816 -33289 -33289 0 1;
#X obj 1017 391 hsl 16 10 0 100 0 0 \$0-note3-vel-s \$0-note3-vel-r
empty -2 -8 0 10 -33289 -253816 -33289 0 1;
#X obj 953 367 nbx 3 14 -36 36 0 0 \$0-note0-pitch-s \$0-note0-pitch-r
empty 0 -8 0 10 -33289 -253816 -33289 0 256;
#X obj 953 352 tgl 10 0 \$0-note0-tog-s \$0-note0-tog-r empty 15 4
0 10 -253816 -33289 -33289 1 1;
#X obj 971 352 hsl 16 10 0 100 0 0 \$0-note0-vel-s \$0-note0-vel-r
empty -2 -8 0 10 -33289 -253816 -33289 1500 1;
#X obj 999 367 nbx 3 14 -36 36 0 0 \$0-note1-pitch-s \$0-note1-pitch-r
empty 0 -8 0 10 -33289 -253816 -33289 0 256;
#X obj 999 352 tgl 10 0 \$0-note1-tog-s \$0-note1-tog-r empty 15 4
0 10 -253816 -33289 -33289 0 1;
#X obj 1017 352 hsl 16 10 0 100 0 0 \$0-note1-vel-s \$0-note1-vel-r
empty -2 -8 0 10 -33289 -253816 -33289 0 1;
#X obj 1037 185 tgl 10 0 \$0-length-sync-s \$0-length-sync-r sync 15
4 0 10 -253816 -33289 -33289 0 1;
#X obj 953 331 cnv 2 146 2 empty \$0-bar empty 20 12 0 14 -33289 -1
0;
#X obj 1010 281 nbx 4 15 -600 600 0 0 \$0-offset-pitch-s \$0-offset-pitch-r
detune 0 -8 0 10 -33289 -253816 -33289 0 256;
#X obj 1072 283 vsl 10 40 0 100 0 0 \$0-drywet-s \$0-drywet-r dry/wet
-15 -10 0 10 -33289 -253816 -33289 3900 1;
#N canvas 0 50 450 250 (subpatch) 0;
#X array \$0-win 128 float 4;
#X coords 0 1 127 0 52 30 1 0 0;
#X restore 1047 366 graph;
#X obj 1047 350 cnv 14 55 14 empty \$0-text empty 20 12 0 14 -253816
-1 0;
#X obj 1047 338 hradio 10 1 0 4 \$0-window-sel-s \$0-window-sel-r hann
0 17 0 10 -253816 -33289 -33289 1;
#X obj 1018 230 hradio 10 1 0 3 \$0-grain-dir-s \$0-grain-dir-r forward
33 4 0 10 -253816 -33289 -33289 0;
#X obj 1047 401 tgl 10 0 \$0-smooth-s \$0-smooth-r smooth 15 4 0 10
-253816 -33289 -33289 0 1;
#X obj 1047 417 cnv 2 52 2 empty \$0-bar empty 20 12 0 14 -33289 -1
0;
#X obj 1018 246 bng 10 250 50 0 \$0-trigger empty trigger 15 4 0 10
-253816 -33289 -33289;
#X obj 962 213 tgl 10 0 \$0-rate-tog-s \$0-rate-tog-r empty 15 4 0
10 -253816 -33289 -33289 1 1;
#X obj 1040 338 cnv 2 2 121 empty \$0-bar empty 20 12 0 14 -33289 -1
0;
#X obj 952 340 cnv 10 30 6 empty \$0-text voices: 1 2 0 10 -253816
-33289 0;
#X obj 977 210 nbx 3 15 1 1999 0 0 \$0-grain-rate-s \$0-grain-rate-r
rate 0 -8 0 10 -33289 -253816 -33289 100 256;
#X obj 1016 215 cnv 13 10 6 empty \$0-grain-rate-label ms 1 2 0 10
-253816 -33289 0;
#X obj 1037 210 nbx 3 15 1 1999 0 0 \$0-grain-duration-s \$0-grain-duration-r
length 0 -8 0 10 -33289 -253816 -33289 300 256;
#X obj 1076 215 cnv 13 10 6 empty \$0-grain-duration-label ms 1 2 0
10 -253816 -33289 0;
#X obj 994 286 cnv 13 10 6 empty \$0-text % 1 2 0 10 -253816 -33289
0;
#X obj 994 316 cnv 13 10 6 empty \$0-text % 1 2 0 10 -253816 -33289
0;
#X obj 1051 316 cnv 13 10 6 empty \$0-text % 1 2 0 10 -253816 -33289
0;
#X obj 953 464 cnv 2 146 2 empty \$0-bar empty 20 12 0 14 -33289 -1
0;
#N canvas 685 52 679 692 presets 0;
#X obj 37 62 r \$0-preset-next;
#X obj 12 12 r \$0-preset-prev;
#X obj 37 87 t b b;
#X obj 12 37 t b b;
#X msg 44 127 -1;
#X msg 69 127 1;
#X obj 12 157 +, f 5;
#X obj 12 127 f;
#X obj 12 232 t f f;
#X obj 12 207 change;
#N canvas 685 52 679 692 default 0;
#X obj 12 12 inlet;
#X obj 12 202 outlet;
#X obj 22 177 s \$0-preset-label;
#X msg 22 152 label default;
#X msg 12 37 smear 0 \, detune 0 \, stereo 0 \, feedback 0 \, drywet
100 \, gain 0 \, rate 100 \, rate tog 1 \, length 300 \, chance 100
\, dir 0 \, rate sync 0 \, rate num 1 \, rate den 1 \, length sync
0 \, length num 1 \, length den 1 \, window shape 1 \, window smooth
0 \, 0 1 \, 0 gain 100 \, 0 transpose 0 \, 1 0 \, 1 gain 0 \, 1 transpose
0 \, 2 0 \, 2 gain 0 \, 2 transpose 0 \, 3 0 \, 3 gain 0 \, 3 transpose
0 \, 4 0 \, 4 gain 0 \, 4 transpose 0 \, 5 0 \, 5 gain 0 \, 5 transpose
0 \,;
#X connect 0 0 4 0;
#X connect 3 0 2 0;
#X connect 4 0 1 0;
#X connect 4 0 3 0;
#X restore 12 317 pd default;
#X obj 12 457 outlet;
#X obj 12 292 sel 0 1 2 3 4;
#X obj 12 182 clip 0 4;
#X msg 180 327 pos \$1 \$2;
#X obj 180 352 s \$0-preset-prev-r;
#X obj 180 272 sel 0, f 9;
#X obj 320 262 sel 4, f 9;
#X msg 320 317 pos \$1 \$2;
#X obj 320 342 s \$0-preset-next-r;
#X msg 380 287 968 471;
#X msg 240 297 953 471;
#X msg 180 297 1093 183;
#X msg 320 287 1093 183;
#N canvas 913 52 451 692 reverse_shimmer 0;
#X obj 12 12 inlet;
#X obj 12 202 outlet;
#X obj 22 177 s \$0-preset-label;
#X msg 22 152 label synced_reverse_shine;
#X msg 12 37 smear 15 \, detune 15 \, stereo 50 \, feedback 98 \, drywet
33.3333 \, gain 3 \, rate 100 \, rate tog 1 \, length 300 \, chance
75 \, dir 1 \, rate sync 1 \, rate num 1 \, rate den 2 \, length sync
1 \, length num 1 \, length den 1 \, window shape 3 \, window smooth
1 \, 0 1 \, 0 gain 100 \, 0 transpose 0 \, 1 1 \, 1 gain 66 \, 1 transpose
12 \, 2 0 \, 2 gain 0 \, 2 transpose 0 \, 3 0 \, 3 gain 0 \, 3 transpose
0 \, 4 0 \, 4 gain 0 \, 4 transpose 0 \, 5 0 \, 5 gain 0 \, 5 transpose
0 \,;
#X connect 0 0 4 0;
#X connect 3 0 2 0;
#X connect 4 0 1 0;
#X connect 4 0 3 0;
#X restore 29 342 pd reverse_shimmer;
#N canvas 685 52 679 692 lush_harmonies 0;
#X obj 12 12 inlet;
#X obj 12 217 outlet;
#X obj 22 192 s \$0-preset-label;
#X msg 22 167 label lush_harmonies;
#X msg 12 37 smear 0 \, detune -20 \, stereo 0 \, feedback 0 \, drywet
84.6154 \, gain -4 \, rate 100 \, rate tog 1 \, length 600 \, chance
100 \, dir 2 \, rate sync 0 \, rate num 1 \, rate den 1 \, length sync
0 \, length num 1 \, length den 1 \, window shape 1 \, window smooth
0 \, 0 1 \, 0 gain 100 \, 0 transpose 0 \, 1 1 \, 1 gain 20 \, 1 transpose
5 \, 2 1 \, 2 gain 33.3333 \, 2 transpose 7 \, 3 1 \, 3 gain 33.3333
\, 3 transpose 12 \, 4 1 \, 4 gain 13.3333 \, 4 transpose -5 \, 5 1
\, 5 gain 40 \, 5 transpose -12 \,;
#X connect 0 0 4 0;
#X connect 3 0 2 0;
#X connect 4 0 1 0;
#X connect 4 0 3 0;
#X restore 47 367 pd lush_harmonies;
#N canvas 685 52 679 692 rhythmic 0;
#X obj 12 12 inlet;
#X obj 12 217 outlet;
#X obj 22 192 s \$0-preset-label;
#X msg 22 167 label rhythmic;
#X msg 12 37 smear 0 \, detune 0 \, stereo 0 \, feedback 0 \, drywet
100 \, gain 1 \, rate 100 \, rate tog 1 \, length 128 \, chance 33
\, dir 0 \, rate sync 1 \, rate num 1 \, rate den 4 \, length sync
0 \, length num 1 \, length den 1 \, window shape 2 \, window smooth
1 \, 0 1 \, 0 gain 86.6667 \, 0 transpose -12 \, 1 1 \, 1 gain 46.6667
\, 1 transpose 12 \, 2 0 \, 2 gain 0 \, 2 transpose 0 \, 3 0 \, 3 gain
0 \, 3 transpose 0 \, 4 0 \, 4 gain 0 \, 4 transpose 0 \, 5 0 \, 5
gain 0 \, 5 transpose 0 \,;
#X connect 0 0 4 0;
#X connect 3 0 2 0;
#X connect 4 0 1 0;
#X connect 4 0 3 0;
#X restore 64 392 pd rhythmic;
#N canvas 913 52 451 692 sewer 0;
#X obj 12 12 inlet;
#X obj 12 217 outlet;
#X obj 22 192 s \$0-preset-label;
#X msg 22 167 label sewer;
#X msg 12 37 smear 100 \, detune -9 \, stereo 100 \, feedback 90 \,
drywet 100 \, gain -13 \, rate 2 \, rate tog 1 \, length 300 \, chance
8 \, dir 2 \, rate sync 0 \, rate num 1 \, rate den 1 \, length sync
0 \, length num 1 \, length den 1 \, window shape 2 \, window smooth
1 \, 0 1 \, 0 gain 100 \, 0 transpose 0 \, 1 1 \, 1 gain 60 \, 1 transpose
12 \, 2 1 \, 2 gain 33.3333 \, 2 transpose -12 \, 3 0 \, 3 gain 100
\, 3 transpose 0 \, 4 0 \, 4 gain 0 \, 4 transpose 0 \, 5 0 \, 5 gain
0 \, 5 transpose 0 \,;
#X connect 0 0 4 0;
#X connect 3 0 2 0;
#X connect 4 0 1 0;
#X connect 4 0 3 0;
#X restore 82 417 pd sewer;
#X connect 0 0 2 0;
#X connect 1 0 3 0;
#X connect 2 0 7 0;
#X connect 2 1 5 0;
#X connect 3 0 7 0;
#X connect 3 1 4 0;
#X connect 4 0 6 1;
#X connect 5 0 6 1;
#X connect 6 0 13 0;
#X connect 7 0 6 0;
#X connect 8 0 12 0;
#X connect 8 1 7 1;
#X connect 8 1 16 0;
#X connect 8 1 17 0;
#X connect 9 0 8 0;
#X connect 10 0 11 0;
#X connect 12 0 10 0;
#X connect 12 1 24 0;
#X connect 12 2 25 0;
#X connect 12 3 26 0;
#X connect 12 4 27 0;
#X connect 13 0 9 0;
#X connect 14 0 15 0;
#X connect 16 0 22 0;
#X connect 16 1 21 0;
#X connect 17 0 23 0;
#X connect 17 1 20 0;
#X connect 18 0 19 0;
#X connect 20 0 18 0;
#X connect 21 0 14 0;
#X connect 22 0 14 0;
#X connect 23 0 18 0;
#X connect 24 0 11 0;
#X connect 25 0 11 0;
#X connect 26 0 11 0;
#X connect 27 0 11 0;
#X restore 349 29 pd presets;
#X obj 983 469 cnv 15 15 15 empty \$0-preset-label default 0 7 0 10
-253816 -33289 0;
#X obj 968 471 bng 10 250 50 0 \$0-preset-next \$0-preset-next-r >
3 5 0 10 -33289 -253816 -253816;
#X obj 1093 183 bng 10 250 50 0 \$0-preset-prev \$0-preset-prev-r <
2 5 0 10 -33289 -253816 -253816;
#X obj 1088 182 cnv 15 15 15 empty empty empty 20 12 0 14 -253816 -66577
0;
#X obj 977 20 nbx 1 15 1 9 0 0 \$0-rate-num-s \$0-rate-num-r rate 0
-8 0 10 -33289 -253816 -33289 1 256;
#X obj 977 20 nbx 1 15 1 9 0 0 \$0-rate-den-s \$0-rate-den-r empty
0 -8 0 10 -33289 -253816 -33289 1 256;
#X obj 1037 20 nbx 1 15 1 9 0 0 \$0-length-num-s \$0-length-num-r length
0 -8 0 10 -33289 -253816 -33289 1 256;
#X obj 1037 20 nbx 1 15 1 9 0 0 \$0-length-den-s \$0-length-den-r empty
0 -8 0 10 -33289 -253816 -33289 1 256;
#X obj 174 29 inlet~;
#X obj 227 29 inlet~;
#X obj 12 330 outlet~;
#X obj 212 330 outlet~;
#X obj 408 130 route bang;
#X obj 1131 176 r \$0-trigger-bng;
#X obj 1131 201 sel 0;
#X msg 1163 226 bang;
#X connect 5 0 155 0;
#X connect 6 0 5 1;
#X connect 6 0 7 1;
#X connect 7 0 156 0;
#X connect 8 0 13 0;
#X connect 11 0 14 1;
#X connect 12 0 13 0;
#X connect 13 0 14 1;
#X connect 14 0 42 0;
#X connect 14 1 45 0;
#X connect 17 0 14 0;
#X connect 18 0 32 0;
#X connect 19 0 33 0;
#X connect 20 0 34 0;
#X connect 20 0 36 0;
#X connect 21 0 37 0;
#X connect 22 0 38 0;
#X connect 24 0 35 0;
#X connect 25 0 39 0;
#X connect 26 0 39 0;
#X connect 27 0 29 0;
#X connect 28 0 27 0;
#X connect 29 0 23 0;
#X connect 30 0 28 0;
#X connect 31 0 30 1;
#X connect 32 0 19 0;
#X connect 33 0 35 0;
#X connect 34 0 71 0;
#X connect 34 0 89 0;
#X connect 35 0 23 0;
#X connect 35 0 24 1;
#X connect 35 0 29 1;
#X connect 35 0 31 0;
#X connect 36 0 70 0;
#X connect 41 0 15 0;
#X connect 42 0 43 0;
#X connect 43 0 41 0;
#X connect 43 0 81 0;
#X connect 44 0 15 1;
#X connect 45 0 46 0;
#X connect 46 0 44 0;
#X connect 46 0 82 0;
#X connect 47 0 50 0;
#X connect 48 0 41 1;
#X connect 48 0 44 1;
#X connect 49 0 48 0;
#X connect 50 0 49 0;
#X connect 51 0 52 0;
#X connect 52 0 53 0;
#X connect 52 1 54 1;
#X connect 53 0 54 0;
#X connect 54 0 55 0;
#X connect 57 0 66 0;
#X connect 59 0 57 0;
#X connect 61 0 62 0;
#X connect 61 0 63 0;
#X connect 64 0 11 0;
#X connect 65 0 67 0;
#X connect 66 0 68 0;
#X connect 67 0 66 0;
#X connect 67 1 66 1;
#X connect 68 0 58 0;
#X connect 69 0 72 0;
#X connect 70 0 16 0;
#X connect 71 0 26 0;
#X connect 72 0 21 0;
#X connect 72 1 25 0;
#X connect 72 1 71 0;
#X connect 73 0 24 0;
#X connect 73 0 30 0;
#X connect 73 0 89 0;
#X connect 74 0 75 0;
#X connect 75 0 76 0;
#X connect 75 0 79 0;
#X connect 76 0 77 0;
#X connect 76 1 78 1;
#X connect 77 0 78 0;
#X connect 78 0 85 0;
#X connect 79 0 80 0;
#X connect 80 0 81 1;
#X connect 80 0 82 1;
#X connect 81 0 5 0;
#X connect 82 0 7 0;
#X connect 83 0 5 0;
#X connect 84 0 7 0;
#X connect 85 0 86 0;
#X connect 86 0 84 1;
#X connect 86 0 83 1;
#X connect 87 0 11 0;
#X connect 89 0 69 0;
#X connect 89 0 73 0;
#X connect 89 0 22 0;
#X connect 90 0 91 0;
#X connect 92 0 9 0;
#X connect 92 0 157 0;
#X connect 144 0 9 0;
#X connect 153 0 83 0;
#X connect 153 0 15 0;
#X connect 154 0 15 1;
#X connect 154 0 84 0;
#X connect 157 0 11 0;
#X connect 158 0 159 0;
#X connect 159 1 160 0;
#X connect 160 0 132 0;
#X coords 0 -1 1 1 169 322 2 942 173;
